<svg width="60" height="59" viewBox="0 0 60 59" fill="none" xmlns="http://www.w3.org/2000/svg">
<g id="Certified support" clip-path="url(#clip0_1758_4455)">
<path id="Vector" d="M48.8368 13.5312C48.835 13.9188 48.7013 14.4454 48.4195 14.9439C48.3201 15.1189 48.2478 15.308 48.1214 15.4658C46.9363 16.941 46.8441 18.549 47.2091 20.2616C47.5939 22.065 46.6021 23.6636 44.7196 24.4512C44.3167 24.6199 44.2228 24.7356 44.4215 25.1247C45.5253 27.2718 46.5822 29.4361 47.6607 31.5926C47.8739 32.0176 48.0473 32.4474 47.6752 32.8599C47.2831 33.2943 46.7628 33.2506 46.1992 33.1396C44.9057 32.8865 43.5995 32.6833 42.306 32.4364C41.8977 32.3583 41.6647 32.4208 41.4389 32.7552C40.7325 33.7944 39.9701 34.8039 39.2457 35.8337C38.9783 36.2134 38.6405 36.4697 38.1075 36.4306C37.571 36.3915 37.3 36.0774 37.1013 35.6727C36.1709 33.7788 35.2116 31.8942 34.2921 29.9955C34.1168 29.6345 33.8675 29.4548 33.4412 29.358C32.4457 29.1329 31.4846 28.7782 30.4115 29.1001C30.0592 29.2064 29.8551 29.3361 29.6979 29.6299C28.3665 32.1364 27.0097 34.632 25.6693 37.1354C25.4398 37.5635 25.1725 37.937 24.5673 37.9589C23.9602 37.9808 23.6567 37.6229 23.3876 37.2151C22.7318 36.2181 22.0417 35.2383 21.4021 34.2335C21.1853 33.8913 20.9812 33.7772 20.5097 33.8616C19.1674 34.1054 17.8107 34.2882 16.4593 34.4913C15.9734 34.5648 15.5019 34.557 15.1676 34.1804C14.819 33.7881 14.9237 33.3818 15.146 32.9724C16.5045 30.4549 17.8486 27.9328 19.2252 25.4231C19.4221 25.0653 19.442 24.8856 18.9506 24.7731C18.6507 24.7043 18.3689 24.5699 18.0871 24.4512C16.3618 23.7214 15.3646 22.1759 15.5579 20.5257C15.6048 20.1194 15.6518 19.71 15.7367 19.3084C15.9661 18.238 15.8397 17.2457 15.1947 16.2721C14.6762 15.4877 14.1234 14.6954 14.0168 13.7516C13.8741 12.4874 14.2174 11.3169 15.3555 10.5324C17.2326 9.23543 18.2478 7.62432 18.6652 5.58347C19.0175 3.85672 20.7409 2.7816 22.7878 2.6769C23.5068 2.64096 24.2276 2.60033 24.9466 2.56751C25.662 2.5347 26.3106 2.35499 26.8833 1.96901C27.4524 1.58616 28.0359 1.22049 28.6158 0.851701C30.3917 -0.279673 32.3843 -0.287486 34.1873 0.826698C34.2053 0.837637 34.2252 0.847013 34.2433 0.859515C37.3921 2.8988 36.3154 2.42062 40.1399 2.6769C42.0784 2.8066 43.6844 3.90516 44.1993 5.53972C44.3998 6.17729 44.5823 6.82111 44.7341 7.46805C44.8985 8.165 45.2869 8.72913 45.8957 9.20105C46.4648 9.64329 47.023 10.098 47.5632 10.5684C48.4448 11.3372 48.8747 12.303 48.8422 13.5297L48.8368 13.5312ZM17.7005 20.8883C17.6697 21.8118 18.19 22.5588 19.4203 22.9057C21.8393 23.587 23.6441 24.8418 24.7804 26.8108C24.8003 26.8452 24.8292 26.8749 24.8545 26.9077C25.6024 27.8656 26.5165 28.2516 27.7559 27.8172C30.258 26.9405 32.677 26.9936 35.1628 27.839C36.263 28.2125 37.188 27.8719 37.8709 27.0327C38.2846 26.5233 38.673 25.9982 39.0578 25.4716C39.7046 24.5887 40.5826 23.9495 41.7008 23.5511C42.3656 23.3151 43.0287 23.076 43.6808 22.8135C44.7521 22.3838 45.2507 21.5915 45.1044 20.5867C45.043 20.1616 44.9779 19.7366 44.9039 19.3131C44.6763 18.0051 44.819 16.755 45.6193 15.5908C45.8939 15.1908 46.1161 14.7642 46.3527 14.3438C46.9272 13.3234 46.7556 12.4905 45.8054 11.6998C45.2851 11.2669 44.7648 10.8372 44.2354 10.4121C43.4369 9.76987 42.9166 8.99634 42.6818 8.07281C42.5228 7.44617 42.3403 6.82423 42.1615 6.20229C41.8634 5.1678 41.1028 4.61618 39.8726 4.54429C39.2204 4.50679 38.5682 4.46929 37.916 4.44428C36.7165 4.3974 35.6181 4.11456 34.657 3.46918C34.0698 3.07538 33.4719 2.69409 32.8667 2.32061C31.9038 1.72523 30.9517 1.71586 29.9888 2.30186C29.3818 2.67065 28.7892 3.05976 28.2003 3.45355C27.2193 4.10831 26.1046 4.40678 24.8798 4.44741C24.2276 4.46929 23.5754 4.50835 22.9233 4.54742C21.7291 4.61774 20.9631 5.1678 20.6705 6.17103C20.5223 6.68047 20.3796 7.19146 20.2604 7.70558C19.993 8.87289 19.3715 9.85581 18.3291 10.6403C17.854 10.9981 17.4006 11.3794 16.9489 11.7607C16.0854 12.4874 15.9101 13.3203 16.4268 14.2594C16.7159 14.786 17.0103 15.3111 17.3283 15.8237C17.8901 16.7253 18.1232 17.6739 17.9751 18.6958C17.8703 19.41 17.7926 20.1273 17.6987 20.8867L17.7005 20.8883ZM24.4155 35.0101C25.364 33.2474 26.269 31.5644 27.194 29.8439C25.1761 29.8502 23.794 29.0532 22.8131 27.639C22.3939 27.0358 21.9802 26.4186 21.3642 25.8638C20.2008 28.0281 19.0626 30.1455 17.8667 32.3708C19.0753 32.1864 20.1357 32.0395 21.1908 31.8598C21.8791 31.7426 22.3596 31.9176 22.7047 32.4583C23.2376 33.2912 23.8067 34.1069 24.4155 35.0101ZM38.3677 33.4897C38.991 32.6271 39.5438 31.8582 40.1002 31.0894C40.6078 30.3862 40.8933 30.2831 41.8345 30.4503C42.8661 30.6347 43.8976 30.8175 45.0087 31.0159C44.1325 29.2579 43.2671 27.5765 42.4632 25.8748C42.2428 25.4091 42.0459 25.4263 41.6647 25.695C41.3612 25.9091 41.1299 26.167 40.9186 26.4436C40.5067 26.978 40.1056 27.5187 39.6937 28.0516C39.0415 28.8938 38.1581 29.4752 37.0128 29.7033C36.5936 29.7861 36.5701 29.8939 36.7327 30.2049C37.2765 31.2503 37.786 32.3083 38.3695 33.4881L38.3677 33.4897Z" fill="#F0DE00"/>
<path id="Vector_2" d="M51.5165 34.7693C51.5165 34.3693 51.5165 34.1036 51.5165 33.838C51.5092 31.0517 51.5038 28.2655 51.4948 25.4777C51.4912 24.2619 51.6212 23.0665 52.1795 21.9351C52.9473 20.3834 54.5732 19.5411 56.2334 19.824C58.2098 20.1599 59.4383 21.4413 59.4798 23.19C59.5015 24.1447 59.5485 25.098 59.581 26.0528C59.7183 30.2407 59.8466 34.4287 59.9965 38.6151C60.067 40.5575 59.301 42.1827 57.7058 43.5469C55.2073 45.6846 52.7485 47.8583 50.232 49.9788C49.7623 50.3757 49.8002 50.7898 49.7894 51.2493C49.784 51.4852 49.9646 51.4806 50.1507 51.4821C50.4217 51.4821 50.6909 51.4759 50.9618 51.4868C52.3222 51.5352 53.2995 52.3447 53.3447 53.523C53.3772 54.3793 53.361 55.2388 53.2995 56.0936C53.2164 57.2421 52.2301 58.0281 50.8878 58.0203C46.0227 57.9922 41.1575 57.9547 36.2924 57.9063C34.9628 57.8922 33.9999 57.0265 33.9674 55.8326C33.9457 55.0544 33.9692 54.273 34.0017 53.4948C34.0559 52.1791 35.0188 51.3649 36.558 51.393C37.1614 51.404 37.3366 51.279 37.324 50.7383C37.2806 48.8099 37.3222 46.88 37.3005 44.9517C37.2752 42.6561 38.1225 40.7622 40.3048 39.3073C42.4077 37.9056 44.3696 36.3492 46.1419 34.6225C47.3342 33.4598 49.7948 33.1957 51.5165 34.7725V34.7693ZM57.5631 31.1189H57.5721C57.4854 28.4296 57.3951 25.7418 57.3156 23.0524C57.3065 22.7258 57.2072 22.443 56.9543 22.1977C56.0979 21.3663 54.902 21.482 54.2932 22.4727C53.7602 23.34 53.6663 24.2932 53.6663 25.2527C53.6663 28.1764 53.6627 31.1002 53.6898 34.0239C53.7024 35.3569 53.2941 36.5617 52.3854 37.6322C50.8552 39.4339 48.9114 40.8981 47.0795 42.453C46.6242 42.8405 45.9739 42.7905 45.5674 42.4186C45.1609 42.0483 45.1663 41.5248 45.6035 41.1044C45.8294 40.8872 46.0841 40.6934 46.3244 40.4872C47.448 39.5292 48.6169 38.6104 49.6521 37.579C50.2844 36.9493 50.2717 36.282 49.6665 35.8163C49.0884 35.3725 48.1833 35.4272 47.6179 35.9914C45.8221 37.7806 43.7699 39.3386 41.6273 40.7934C40.0718 41.8498 39.4738 43.1765 39.4774 44.8033C39.481 46.8504 39.4919 48.8959 39.4648 50.943C39.4594 51.3508 39.6238 51.4118 40.0375 51.4118C42.3589 51.4165 44.6786 51.4274 46.9982 51.479C47.5582 51.4915 47.71 51.3258 47.6341 50.8945C47.4733 49.9851 47.8979 49.3303 48.6603 48.6943C51.1714 46.5956 53.5958 44.4188 56.0925 42.3061C57.3517 41.2404 57.9172 40.0012 57.8377 38.4807C57.7094 36.0273 57.6534 33.5723 57.5667 31.1174L57.5631 31.1189ZM43.6362 56.0389V56.1482C45.9558 56.1482 48.2773 56.142 50.5969 56.1545C50.9835 56.1561 51.1822 56.0982 51.1732 55.7169C51.1551 55.0747 51.1732 54.4309 51.2003 53.7886C51.213 53.4605 51.0666 53.3495 50.6854 53.3479C46.0227 53.3214 41.3599 53.287 36.6953 53.2417C36.2726 53.237 36.1443 53.3698 36.1515 53.7167C36.1642 54.3012 36.1714 54.8887 36.119 55.4701C36.0738 55.9529 36.2942 56.0545 36.8109 56.0482C39.0854 56.0264 41.3617 56.0389 43.6362 56.0389Z" fill="#F0DE00"/>
<path id="Vector_3" d="M8.51054 34.7084C10.5411 33.1941 12.5103 33.3113 14.25 34.9928C15.9554 36.6398 17.8794 38.0869 19.8757 39.448C21.8521 40.7934 22.6615 42.5452 22.6813 44.6392C22.7012 46.705 22.6994 48.7709 22.6777 50.8367C22.6741 51.2414 22.7355 51.4024 23.2793 51.3946C25.0823 51.3696 25.9657 52.1478 26 53.7105C26.0145 54.3918 26.0398 55.0747 26.0289 55.756C26.0072 57.0639 25.0281 57.9 23.5196 57.9125C18.79 57.9515 14.0585 57.9891 9.32892 58.0234C7.66507 58.0359 6.71842 57.253 6.66964 55.8216C6.64616 55.12 6.63532 54.4184 6.63713 53.7167C6.64074 52.3525 7.62532 51.504 9.20969 51.4837C9.25485 51.4837 9.30363 51.493 9.34518 51.4821C9.62339 51.4118 10.0931 51.6618 10.1654 51.3258C10.2521 50.9195 10.3334 50.4726 9.8709 50.0819C7.76082 48.2974 5.68687 46.48 3.60208 44.6751C3.0601 44.2063 2.51632 43.7406 1.98519 43.264C0.586902 42.0045 -0.0526259 40.4887 0.00337794 38.7541C0.173196 33.4567 0.348434 28.1577 0.530898 22.8602C0.576063 21.5538 1.66723 20.3865 3.21728 19.9427C4.6806 19.5239 6.18006 19.9052 7.15019 20.9694C8.17633 22.0961 8.46177 23.44 8.47983 24.8135C8.51958 27.9311 8.48706 31.0486 8.48345 34.1677C8.48345 34.3208 8.4979 34.4724 8.51054 34.7068V34.7084ZM6.31917 29.7063H6.3282C6.3282 28.1077 6.34627 26.509 6.32097 24.912C6.30833 24.0728 6.17464 23.2399 5.70854 22.482C5.29303 21.8054 4.7077 21.5397 4.0194 21.6929C3.19379 21.8773 2.70963 22.3898 2.68614 23.1087C2.51452 28.2514 2.35915 33.3957 2.16224 38.5385C2.10623 40.0136 2.63737 41.2263 3.85861 42.2623C6.31917 44.3516 8.71288 46.4987 11.1969 48.5677C12.037 49.2678 12.579 49.9772 12.3712 51.0102C12.3062 51.3383 12.4091 51.4883 12.8626 51.4805C15.2726 51.4399 17.6843 51.4258 20.0943 51.4133C20.3888 51.4118 20.5351 51.3743 20.5333 51.0695C20.5152 48.8474 20.5532 46.6253 20.4972 44.4032C20.4683 43.2359 20.1377 42.1358 19.0302 41.3138C16.707 39.587 14.3169 37.9259 12.2917 35.9179C11.7804 35.41 10.8826 35.4053 10.3406 35.8179C9.77876 36.2445 9.73179 36.8383 10.2214 37.4415C10.337 37.5837 10.4743 37.715 10.617 37.8384C11.8419 38.901 13.0758 39.9558 14.297 41.0216C14.8263 41.4841 14.8697 42.0186 14.4379 42.4186C14.0025 42.8218 13.3431 42.828 12.8228 42.3858C11.439 41.2122 10.0407 40.0527 8.71469 38.8291C7.03277 37.2774 6.11864 35.5085 6.3011 33.3317C6.40227 32.13 6.31917 30.9158 6.31917 29.7078V29.7063ZM16.2969 56.1513V56.0404C18.6165 56.0404 20.938 56.031 23.2576 56.0482C23.7183 56.0513 23.908 55.9513 23.8773 55.5278C23.8339 54.9262 23.8303 54.3199 23.8448 53.7167C23.852 53.3667 23.7183 53.2401 23.2992 53.2432C18.6364 53.2885 13.9736 53.3229 9.30905 53.3495C8.92786 53.351 8.78334 53.4651 8.79779 53.7933C8.82308 54.3965 8.84476 55.0028 8.82128 55.606C8.80502 56.0295 8.95135 56.1701 9.46984 56.1639C11.7443 56.1373 14.0206 56.1529 16.2951 56.1529L16.2969 56.1513Z" fill="#F0DE00"/>
<path id="Vector_4" d="M31.3968 24.2137C25.4911 24.2074 20.6676 20.0195 20.6748 14.9064C20.682 9.79959 25.5255 5.62257 31.433 5.63038C37.3351 5.6382 42.1658 9.83084 42.1586 14.9377C42.1514 20.0413 37.3025 24.2215 31.3968 24.2137ZM31.3968 22.3416C36.0885 22.3478 39.9727 19.0178 39.9943 14.9658C40.0178 10.881 36.1499 7.50871 31.433 7.5009C26.7413 7.49309 22.859 10.8263 22.8391 14.8767C22.8192 18.9662 26.6817 22.3353 31.3968 22.3416Z" fill="#F0DE00"/>
<path id="Vector_5" d="M37.1525 54.5605C37.2067 54.1918 37.4795 53.9183 38.0179 53.9214C38.5616 53.923 38.8399 54.2152 38.8814 54.6543C38.9212 55.0669 38.446 55.4435 37.9691 55.42C37.503 55.3981 37.1381 55.0497 37.1507 54.5605H37.1525Z" fill="#F0DE00"/>
<path id="Vector_6" d="M22.8528 54.6732C22.8022 55.1451 22.4861 55.4108 21.9766 55.4108C21.4599 55.4108 21.1474 55.1186 21.1095 54.6701C21.0733 54.2497 21.5214 53.8919 22.0236 53.92C22.5638 53.9513 22.8149 54.231 22.8528 54.6732Z" fill="#F0DE00"/>
<path id="Vector_7" d="M37.703 11.9498C37.7174 12.3467 37.5133 12.5967 37.2387 12.8124C34.8721 14.6704 32.5073 16.5315 30.1352 18.3833C29.4686 18.9037 28.9519 18.8865 28.3142 18.3427C27.4001 17.5629 26.4932 16.7784 25.5917 15.9877C25.028 15.4939 24.9738 14.9548 25.4237 14.5485C25.8898 14.1281 26.5437 14.1719 27.1363 14.6751C27.7307 15.1798 28.3377 15.6752 28.8959 16.2096C29.194 16.494 29.3728 16.4737 29.6854 16.2252C31.7069 14.6173 33.7411 13.0218 35.7808 11.431C36.4781 10.8872 37.3687 11.0325 37.647 11.7185C37.6831 11.8091 37.6939 11.9076 37.703 11.9482V11.9498Z" fill="#F0DE00"/>
</g>
<defs>
<clipPath id="clip0_1758_4455">
<rect width="60" height="58.022" fill="white"/>
</clipPath>
</defs>
</svg>
