<svg width="63" height="63" viewBox="0 0 63 63" fill="none" xmlns="http://www.w3.org/2000/svg">
<g id="Layer_1" clip-path="url(#clip0_2099_916)">
<path id="Vector" d="M62.9897 29.5324C62.9829 26.8778 61.1601 24.7687 58.5326 24.4468C57.9261 24.3723 57.8584 24.1504 57.9126 23.6828C57.9194 23.6201 57.9126 23.5558 57.9126 23.4931C57.8939 21.6313 56.6149 20.3388 54.7633 20.3252C53.6419 20.3167 52.5187 20.293 51.399 20.3371C50.8857 20.3574 50.7891 20.1931 50.7908 19.712C50.8077 14.6315 50.8027 9.55105 50.801 4.4706C50.801 1.66356 49.1493 0.00169405 46.3592 0C41.4058 0 36.4541 0 31.5007 0C26.5473 0 21.5532 0 16.5795 0C13.8758 0 12.1953 1.68558 12.1936 4.39775C12.1919 9.47821 12.1851 14.5587 12.2054 19.6391C12.2071 20.1609 12.136 20.3692 11.5397 20.3388C10.3793 20.2795 9.21206 20.3049 8.04825 20.3286C6.68115 20.354 5.54444 21.2857 5.18361 22.6054C5.05656 23.0662 5.07858 23.5287 5.08705 23.9928C5.09213 24.2706 5.03962 24.374 4.72113 24.4113C1.82431 24.7433 0.00490155 26.7948 0.0032075 29.7136C-0.000180601 35.6614 -0.00187465 41.6092 0.0032075 47.5587C0.0065956 50.647 2.19023 52.8272 5.27678 52.8374C7.39265 52.8442 9.51021 52.856 11.6261 52.8255C12.1123 52.8188 12.2088 52.9543 12.2037 53.4168C12.18 56.1899 12.1902 58.9631 12.1936 61.7362C12.1936 62.6426 12.5527 62.9949 13.4641 62.9983C14.6279 63.0034 15.7917 63.0017 16.9573 62.9983C17.95 62.9966 18.2871 62.6595 18.2871 61.6651C18.2888 59.2307 18.2871 56.7964 18.2871 54.362C18.2871 52.7967 18.2871 52.8086 19.8761 52.8272C20.2369 52.8306 20.3318 52.9272 20.3284 53.2846C20.3081 54.7669 20.3149 56.2475 20.3216 57.7298C20.325 58.5565 20.696 58.9275 21.5244 58.9326C22.7526 58.9394 23.9791 58.9394 25.2073 58.9326C26.034 58.9275 26.4067 58.5565 26.4134 57.7315C26.4219 56.588 26.4151 55.4462 26.4151 54.3027C26.4151 52.8306 26.4151 52.8526 27.872 52.8255C28.343 52.8171 28.4632 52.9289 28.4598 53.4083C28.4344 56.2018 28.4446 58.997 28.4497 61.7904C28.4497 62.6188 28.8241 62.9915 29.6491 62.9966C30.8349 63.0051 32.019 63 33.2049 62.9966C34.2027 62.9949 34.5415 62.6595 34.5432 61.6719C34.5449 59.2172 34.5432 56.7608 34.5432 54.3061C34.5432 52.8205 34.5432 52.8357 36.061 52.8272C36.4642 52.8255 36.5913 52.9136 36.5862 53.3405C36.5625 55.4784 36.571 57.6163 36.5777 59.7542C36.5794 60.5843 36.9504 60.9587 37.772 60.9637C38.9579 60.9722 40.142 60.9671 41.3278 60.9637C42.329 60.9621 42.6695 60.63 42.6712 59.6441C42.6746 57.8653 42.6712 56.0883 42.6712 54.3095C42.6712 52.8306 42.6712 52.8493 44.1196 52.8238C44.5736 52.8154 44.721 52.9001 44.7159 53.3964C44.6871 56.1696 44.7007 58.9427 44.7024 61.7159C44.7024 62.6358 45.0531 62.9898 45.9577 62.9949C47.0588 63 48.1582 62.9949 49.2594 62.9949C50.5231 62.9949 50.7976 62.7273 50.7976 61.4872C50.7976 58.8411 50.823 56.195 50.7789 53.5489C50.7688 52.9069 50.9619 52.8069 51.5447 52.8188C53.6402 52.856 55.7357 52.8442 57.8313 52.8306C60.7603 52.8103 62.9778 50.6148 62.9846 47.6909C62.9998 41.6363 62.9981 35.5835 62.9846 29.529L62.9897 29.5324ZM52.3917 22.3547C53.154 22.3547 53.9163 22.3479 54.677 22.3564C55.6375 22.3665 56.2744 23.388 55.878 24.2605C55.7899 24.4553 55.6307 24.3825 55.5003 24.3841C54.76 24.3926 54.018 24.3875 53.2777 24.3875C52.5797 24.3875 51.8801 24.3723 51.1821 24.3943C50.8755 24.4045 50.8027 24.3079 50.7908 24.0064C50.7281 22.3547 50.7197 22.3564 52.39 22.3564L52.3917 22.3547ZM51.3007 32.5105C51.5277 32.5427 51.7632 32.5156 51.9936 32.5156V32.5224C52.3087 32.5224 52.6272 32.4953 52.9389 32.5291C53.4826 32.5867 53.8757 33.039 53.8418 33.5608C53.8062 34.1165 53.4843 34.4451 52.9422 34.5349C52.7373 34.5688 52.5221 34.5467 52.3121 34.5467C50.784 34.5467 50.7993 34.5467 50.7908 33.0272C50.7891 32.6291 50.8721 32.4478 51.299 32.5088L51.3007 32.5105ZM14.2264 4.45027C14.2264 2.79688 14.982 2.03286 16.6134 2.03286C26.5388 2.03286 36.4625 2.03286 46.388 2.03286C47.9871 2.03286 48.7698 2.80704 48.7698 4.39606C48.7698 14.2368 48.7647 24.0775 48.7834 33.9199C48.7834 34.4604 48.6411 34.5637 48.1261 34.562C42.5814 34.5417 37.0368 34.5484 31.4922 34.5484C25.9476 34.5484 20.4029 34.54 14.8583 34.562C14.3298 34.5637 14.2095 34.4383 14.2095 33.9115C14.2281 24.0911 14.2231 14.2724 14.2231 4.45196L14.2264 4.45027ZM8.70723 22.353C9.73891 22.353 10.7723 22.3631 11.804 22.3462C12.0953 22.3411 12.1902 22.4089 12.2037 22.7223C12.2715 24.3841 12.2834 24.3841 10.63 24.3841C10.2929 24.3841 9.95575 24.3841 9.61863 24.3841C8.90205 24.3841 8.18547 24.374 7.46888 24.3892C7.20122 24.396 7.11991 24.3265 7.10466 24.0419C7.03521 22.6935 7.34691 22.3513 8.70723 22.3513V22.353ZM2.03607 29.6933C2.03945 27.6791 3.3066 26.4238 5.33438 26.4204C7.45025 26.417 9.56781 26.4306 11.6837 26.4102C12.0919 26.4068 12.219 26.5051 12.2054 26.9252C12.1733 27.962 12.18 28.9987 12.2037 30.0355C12.2122 30.3929 12.114 30.5115 11.7514 30.4912C11.2026 30.4607 10.6503 30.4726 10.1014 30.4878C8.44804 30.5302 7.13007 31.8651 7.11821 33.4998C7.10466 35.1685 8.41924 36.5508 10.1014 36.5728C12.2597 36.5999 14.4196 36.5813 16.5778 36.5813C28.5988 36.5813 40.6214 36.5813 52.6424 36.5813C54.5245 36.5813 55.895 35.2684 55.8831 33.5049C55.8713 31.8939 54.5804 30.5522 52.966 30.4929C52.3747 30.4709 51.7801 30.4709 51.1889 30.4929C50.884 30.5047 50.7942 30.4133 50.7993 30.1049C50.8179 29.0038 50.8162 27.9044 50.7993 26.8032C50.7942 26.4983 50.884 26.4136 51.1889 26.4153C53.4962 26.4289 55.8035 26.3933 58.1091 26.439C59.6151 26.4678 60.9212 27.7434 60.9449 29.2495C60.9941 32.2547 60.9602 35.2599 60.972 38.2652C60.972 38.5447 60.8924 38.6531 60.6146 38.6175C60.4892 38.6023 60.3605 38.6142 60.2334 38.6142C50.6451 38.6142 41.0585 38.6142 31.4702 38.6142C21.8819 38.6142 12.2952 38.6091 2.70691 38.6277C2.15973 38.6277 2.01404 38.5142 2.02082 37.9501C2.0547 35.199 2.03268 32.4478 2.03776 29.695L2.03607 29.6933ZM12.1953 33.3507C12.1953 34.1492 11.7944 34.5456 10.9925 34.54C10.6774 34.54 10.3555 34.5772 10.0472 34.5315C9.50344 34.4519 9.18495 34.1114 9.15446 33.554C9.12397 33.0289 9.51529 32.5647 10.0625 32.5291C10.6706 32.4902 11.2822 32.5291 11.892 32.5088C12.1563 32.5003 12.2173 32.6138 12.1987 32.8442C12.1851 33.0119 12.1953 33.1813 12.1953 33.3491V33.3507ZM15.829 60.9773C14.2264 60.9976 14.2264 61.0129 14.2264 59.3917C14.2264 57.3808 14.2349 55.3717 14.218 53.3609C14.2146 52.9746 14.2756 52.8205 14.7194 52.8238C16.2576 52.8357 16.2576 52.8154 16.2576 54.3468V56.9489C16.2576 58.1347 16.2458 59.3188 16.2644 60.5047C16.2695 60.8418 16.2085 60.9705 15.8273 60.9756L15.829 60.9773ZM23.9638 56.9099C22.3545 56.9438 22.3545 56.9522 22.3545 55.3361C22.3545 54.6585 22.3697 53.9809 22.3477 53.305C22.3376 52.9763 22.3833 52.8306 22.7763 52.8255C24.3857 52.8035 24.3857 52.7866 24.3857 54.4027C24.3857 54.5721 24.3857 54.7415 24.3857 54.9109C24.3857 55.4395 24.3619 55.9697 24.3941 56.4965C24.4162 56.8489 24.2772 56.9031 23.9638 56.9082V56.9099ZM32.0055 60.9773C30.4825 60.9671 30.4825 60.9841 30.4825 59.4408V56.8387C30.4825 55.6529 30.4961 54.4688 30.4741 53.2829C30.4673 52.9238 30.5689 52.8323 30.9281 52.8272C32.5154 52.8086 32.5154 52.7967 32.5154 54.362C32.5154 56.3932 32.5035 58.4244 32.5256 60.4572C32.5306 60.8706 32.4222 60.9807 32.0072 60.9773H32.0055ZM40.2606 58.9427C38.6089 59.0054 38.6089 59.0156 38.6089 57.3453C38.6089 55.9917 38.6208 54.6365 38.6004 53.2829C38.5953 52.9238 38.6953 52.8323 39.0527 52.8272C40.6401 52.8086 40.6401 52.7967 40.6401 54.362C40.6401 54.8703 40.6401 55.3785 40.6401 55.885C40.6401 56.7744 40.6282 57.662 40.6468 58.5514C40.6536 58.8564 40.5621 58.9309 40.2589 58.9427H40.2606ZM48.326 60.9756C46.7386 60.9942 46.7386 61.0061 46.7386 59.4408C46.7386 57.4096 46.7505 55.3785 46.7285 53.3456C46.7234 52.934 46.8301 52.8222 47.2469 52.8238C48.7715 52.834 48.7715 52.8171 48.7715 54.3587V56.9607C48.7715 58.1465 48.7579 59.3307 48.78 60.5165C48.7867 60.874 48.6868 60.9688 48.3277 60.9722L48.326 60.9756ZM60.9771 41.3094C60.9382 43.3829 60.9653 45.4581 60.9602 47.5316C60.9551 49.5204 59.693 50.8012 57.7229 50.8028C40.2403 50.8062 22.7577 50.8045 5.27509 50.8028C3.30491 50.8028 2.03945 49.5204 2.03437 47.535C2.03098 45.4395 2.05131 43.3439 2.02082 41.2484C2.01404 40.7537 2.1411 40.6318 2.63745 40.6318C12.2681 40.647 21.8988 40.6436 31.5278 40.6436C41.1567 40.6436 50.7044 40.6487 60.291 40.6301C60.8416 40.6301 60.9873 40.7487 60.9754 41.3094H60.9771Z" fill="#121212"/>
<path id="Vector_2" d="M7.1298 42.6782C5.43576 42.6799 4.06188 44.0538 4.07035 45.7411C4.07713 47.3979 5.44253 48.7616 7.10101 48.7683C8.78658 48.7751 10.1605 47.3995 10.1605 45.7038C10.1605 44.0521 8.7832 42.6765 7.1298 42.6782ZM7.1603 46.7372C6.5894 46.766 6.09982 46.2984 6.09982 45.7241C6.09982 45.1753 6.54875 44.7179 7.09592 44.7094C7.64479 44.7009 8.10896 45.1431 8.12591 45.6902C8.14285 46.2374 7.70578 46.7084 7.1586 46.7372H7.1603Z" fill="#121212"/>
<path id="Vector_3" d="M47.8574 42.6781C46.1582 42.6391 44.7454 43.9757 44.7115 45.6528C44.6793 47.3164 46.0041 48.7191 47.6558 48.7665C49.3464 48.8156 50.7593 47.4773 50.7999 45.79C50.8406 44.1316 49.5006 42.7153 47.8574 42.6781ZM47.7947 46.737C47.2238 46.7624 46.7376 46.2898 46.741 45.7155C46.7444 45.1666 47.1967 44.7126 47.7456 44.7092C48.2944 44.7042 48.7552 45.1497 48.7688 45.6986C48.7806 46.2457 48.3436 46.7133 47.7947 46.737Z" fill="#121212"/>
<path id="Vector_4" d="M55.9676 42.6783C54.2939 42.6478 52.8946 43.9573 52.8387 45.6073C52.7811 47.2979 54.1211 48.7277 55.7982 48.7684C57.4872 48.809 58.8949 47.4639 58.9271 45.775C58.9593 44.1182 57.6125 42.7087 55.9676 42.6783ZM55.8507 46.7372C55.3035 46.722 54.8597 46.2595 54.8665 45.7106C54.8733 45.1617 55.329 44.7111 55.8761 44.7094C56.425 44.7094 56.8841 45.1567 56.8926 45.7038C56.9027 46.2764 56.4216 46.7524 55.849 46.7372H55.8507Z" fill="#121212"/>
</g>
<defs>
<clipPath id="clip0_2099_916">
<rect width="63" height="63" fill="white"/>
</clipPath>
</defs>
</svg>
