<svg width="90" height="66" viewBox="0 0 90 66" fill="none" xmlns="http://www.w3.org/2000/svg">
<g id="1 HANDS" clip-path="url(#clip0_1758_8778)">
<path id="Vector" d="M0.144362 35.6744C0.753499 29.0737 3.76923 23.7987 8.9419 19.717C10.0453 18.8457 11.2312 18.0868 12.5143 17.5076C13.0411 17.268 13.2158 16.9784 13.2308 16.3942C13.4355 8.53283 19.0925 1.8473 26.7916 0.321958C35.0499 -1.31572 43.2882 3.44254 45.9669 11.4337C46.1991 12.1277 46.3963 12.1452 47.013 11.8506C51.0497 9.93085 55.0915 10.0207 59.0958 11.973C60.0919 12.4598 60.4689 13.4783 60.042 14.3895C59.6276 15.2708 58.659 15.6752 57.6654 15.2333C56.0402 14.5094 54.39 14.0026 52.5851 14.0825C50.4756 14.1748 48.5757 14.8264 46.9156 16.1371C46.1517 16.7412 45.4177 17.4327 44.3293 16.9958C43.2308 16.554 43.2083 15.5204 43.076 14.5693C42.2123 8.29816 35.8388 3.13298 29.5227 3.59732C22.9021 4.08163 18.1089 8.39302 16.9555 14.9088C16.7958 15.8075 16.8207 16.7162 16.8532 17.6249C16.9081 19.1478 16.6385 19.6046 15.2579 20.1913C11.0839 21.9613 7.96328 24.8722 5.80634 28.8441C-0.132746 39.7811 6.45542 53.8636 18.6432 56.2927C19.8839 56.5398 21.1246 56.6646 22.3903 56.6646C30.2717 56.6621 38.153 56.6746 46.0318 56.6871C46.3514 56.6871 46.6784 56.6921 46.993 56.7445C47.9741 56.9043 48.6207 57.6158 48.6182 58.502C48.6182 59.3933 47.9666 60.1098 46.988 60.272C46.7009 60.3195 46.4038 60.3095 46.1117 60.3095C38.0856 60.302 30.0545 60.4243 22.0309 60.2421C13.7251 60.0548 7.43154 56.1479 3.09768 49.1003C1.5998 46.6638 0.693583 43.9826 0.276674 41.1416C0.234234 40.8595 0.339086 40.4851 -0.00292969 40.2828V38.1733C0.191794 37.6466 0.0370137 37.0999 0.086943 36.5656C0.109411 36.2685 0.0345173 35.964 0.141865 35.6719L0.144362 35.6744Z" fill="#121212"/>
<path id="Vector_2" d="M0.157277 36.5707C0.129816 37.1074 0.334526 37.6666 0 38.1759V36.5931C0.0424399 36.5232 0.0948656 36.5158 0.157277 36.5707Z" fill="#1A1A1A"/>
<path id="Vector_3" d="M0.157277 36.5708C0.104851 36.5808 0.0524257 36.5883 0 36.5933V35.7145L0.144795 35.6746L0.157277 36.5733V36.5708Z" fill="#494949"/>
<path id="Vector_4" d="M13.3207 36.4483C13.081 42.3749 17.7619 47.3653 23.8034 47.5076C24.2402 47.5176 24.6846 47.5475 25.1065 47.6474C25.8954 47.8321 26.4097 48.5112 26.3972 49.3125C26.3822 50.1613 25.9803 50.763 25.1539 51.0126C24.053 51.3472 22.9321 51.1474 21.8461 50.9702C14.6988 49.8043 9.56603 43.6381 9.70084 36.4208C9.71332 35.8092 9.77823 35.1926 9.88058 34.5884C10.0578 33.5449 10.8742 32.9283 11.8703 33.0281C12.8089 33.123 13.433 33.8744 13.4181 34.9254C13.4131 35.3923 13.3607 35.8591 13.3207 36.4458V36.4483Z" fill="#121212"/>
<path id="Vector_5" d="M52.6052 18.3441C55.5985 18.3291 58.3546 20.7382 58.7191 23.6915C58.8564 24.8099 58.2947 25.6712 57.2961 25.8634C56.3175 26.0531 55.4887 25.4515 55.2016 24.3431C54.7772 22.7029 54.0182 22.0288 52.5179 21.9589C51.0724 21.8915 50.2935 21.2599 50.291 20.1565C50.291 19.0306 51.1548 18.354 52.6077 18.3466L52.6052 18.3441Z" fill="#121212"/>
<path id="Vector_6" d="M87.5287 26.6398C86.7847 25.3342 84.9848 24.2757 83.7565 24.6177C83.2248 24.765 83.1274 24.5828 83.0051 24.1758C82.4783 22.4083 81.7843 20.7008 80.8706 19.1005C79.7197 17.0834 78.1994 15.4782 75.6705 15.5081C74.7593 15.5181 74.4946 15.2809 74.5396 14.4271C74.5895 13.451 74.2625 12.6522 73.2689 12.2452C69.8737 10.8547 65.9817 12.2402 64.2042 15.4607C63.1532 17.3655 62.8561 19.4675 62.8012 21.562C62.6689 26.5575 61.5829 31.3532 60.125 36.0914C59.9178 36.7655 59.6207 37.4046 59.079 37.8864C58.4873 38.4157 58.1803 38.3582 57.7958 37.6517C57.2466 36.6432 57.0194 35.5148 56.6275 34.4463C55.7462 32.0472 54.473 29.9052 52.4359 28.2975C48.9983 25.5838 44.6344 27.1666 43.7682 31.4131C43.4137 33.1531 43.5285 34.8457 44.0952 36.5133C45.3235 40.1357 46.7539 43.6832 48.1794 47.2282C49.3952 50.2489 50.8706 53.1473 53.0825 55.5763C54.6578 57.3064 55.4292 59.2936 55.549 61.6053C55.6888 64.2865 57.3414 65.7969 60.0476 65.8019C62.976 65.8068 65.9068 65.8019 68.8352 65.8019C71.8809 65.8019 74.929 65.7994 77.9747 65.8019C79.8221 65.8019 81.1852 65.023 81.9416 63.3154C82.3061 62.489 82.6007 61.6303 82.8977 60.779C85.1396 54.3581 87.5087 47.9796 89.2438 41.3939C90.5993 36.2562 90.1974 31.3182 87.5287 26.6398ZM86.0757 38.9274C84.9848 44.2374 83.04 49.2903 81.3275 54.413C80.5411 56.7647 79.6598 59.0864 78.856 61.433C78.6538 62.0222 78.3492 62.2519 77.7101 62.2444C74.8092 62.2144 71.9083 62.2319 69.0099 62.2319C66.0791 62.2319 63.1507 62.2119 60.2199 62.2444C59.4385 62.2544 59.1064 61.9997 59.084 61.1984C59.0016 58.1852 57.9531 55.5639 55.891 53.337C54.2234 51.5371 53.035 49.4051 52.0689 47.1782C50.4188 43.3761 48.9758 39.4891 47.5828 35.5847C47.2108 34.5436 47.0061 33.4602 47.2433 32.3118C47.6202 30.4944 48.5214 30.0375 50.2889 31.2283C51.8517 32.2818 52.6681 33.9994 53.2822 35.7694C53.8089 37.2823 54.1709 38.855 55.1645 40.1757C56.4527 41.8907 58.4698 42.3651 60.3771 41.339C61.7827 40.5826 62.7737 39.4192 63.268 37.9363C64.8508 33.1831 66.1115 28.3549 66.2963 23.3046C66.3612 21.5496 66.4411 19.7895 66.9803 18.0969C67.512 16.4243 69.0524 15.236 70.5103 15.3009C70.8448 15.3159 71.0246 15.3508 71.057 15.7652C71.2642 18.2442 71.5014 20.7232 71.7361 23.1997C72.0456 26.4751 71.1469 29.5832 70.4104 32.7112C69.9686 34.5886 69.4518 36.4459 69.0049 38.3233C68.7603 39.3518 69.292 40.2431 70.2432 40.5277C71.1319 40.7948 72.153 40.3454 72.4026 39.3668C73.6558 34.4163 75.3434 29.5432 75.3734 24.3581C75.3809 22.8402 75.1787 21.3199 75.0838 19.802C75.0364 19.0556 75.306 18.8634 76.02 19.1255C76.9087 19.4525 77.403 20.1965 77.8174 20.9704C78.5614 22.3609 79.1655 23.8213 79.6299 25.3317C80.0543 26.7122 79.6773 28.0728 79.4227 29.4134C78.7636 32.8885 78.1894 36.3785 77.2807 39.8037C76.9387 41.0919 77.433 42.028 78.514 42.3101C79.53 42.5748 80.3813 41.9881 80.7358 40.7374C81.8367 36.8479 82.3984 32.846 83.1699 28.8867C83.2323 28.5671 83.1324 28.0528 83.4894 28.0004C83.9013 27.9405 84.2908 28.2151 84.5329 28.6545C86.3204 31.8899 86.8197 35.325 86.0782 38.9274H86.0757Z" fill="#121212"/>
</g>
<defs>
<clipPath id="clip0_1758_8778">
<rect width="90" height="65.8043" fill="white"/>
</clipPath>
</defs>
</svg>
