<svg width="24" height="24" viewBox="0 0 24 24" fill="none" xmlns="http://www.w3.org/2000/svg">
<g id="info" clip-path="url(#clip0_2066_776)">
<path id="Vector" d="M12 2.41667C6.48 2.41667 2 6.71 2 12C2 17.29 6.48 21.5833 12 21.5833C17.52 21.5833 22 17.29 22 12C22 6.71 17.52 2.41667 12 2.41667ZM12 16.7917C11.45 16.7917 11 16.3604 11 15.8333V12C11 11.4729 11.45 11.0417 12 11.0417C12.55 11.0417 13 11.4729 13 12V15.8333C13 16.3604 12.55 16.7917 12 16.7917ZM13 9.125H11V7.20833H13V9.125Z" fill="#121212"/>
</g>
<defs>
<clipPath id="clip0_2066_776">
<rect width="24" height="23" fill="white" transform="translate(0 0.5)"/>
</clipPath>
</defs>
</svg>
