<svg width="60" height="59" viewBox="0 0 60 59" fill="none" xmlns="http://www.w3.org/2000/svg">
<g id="Integrity &#38; Ethics">
<path id="Vector" d="M0 35.4717C0.918479 33.5688 1.84636 31.6704 2.75544 29.7629C5.08298 24.8732 7.39799 19.9789 9.73494 15.0922C9.92302 14.6971 9.88227 14.5185 9.45595 14.3519C8.91677 14.14 8.41208 13.8433 7.88387 13.6056C7.6378 13.4951 7.56883 13.3891 7.71773 13.1409C7.93403 12.7836 8.12995 12.4127 8.29139 12.0312C8.41835 11.7299 8.56411 11.7481 8.81646 11.8798C9.31332 12.1387 9.85249 12.3294 10.3258 12.6216C10.7459 12.882 10.8854 12.7321 11.0249 12.3642C11.1644 11.9979 11.3995 11.7072 11.8478 11.6482C12.459 11.5665 12.8117 11.8768 13.0123 12.3764C13.1393 12.6912 13.2741 12.7609 13.6142 12.6155C15.4496 11.8253 17.3931 11.5907 19.3837 11.5982C21.7692 11.6073 24.1547 11.5937 26.5387 11.6073C26.907 11.6104 27.0669 11.5347 27.0309 11.1471C26.987 10.6793 27.1766 10.0738 26.9353 9.77405C26.6766 9.4516 26.0199 9.67111 25.5403 9.67716C25.1469 9.68171 24.9604 9.59693 25.0137 9.18214C25.0732 8.7189 24.8099 8.12698 25.1202 7.81967C25.4055 7.53658 26.0121 7.76366 26.4745 7.73035C26.5513 7.7243 26.6265 7.70916 26.7252 7.69553C26.4886 6.74786 26.2331 5.8229 26.0278 4.88583C25.5262 2.59688 26.9227 0.562269 29.3051 0.0778367C31.4634 -0.36118 33.6436 1.10271 34.0966 3.31445C34.2267 3.95329 34.1295 4.59365 33.9696 5.2219C33.7612 6.04089 33.5464 6.85837 33.3207 7.73187C33.8129 7.73187 34.2596 7.74095 34.7063 7.72884C34.9571 7.72127 35.0762 7.80604 35.0464 8.0528C35.0448 8.07097 35.0464 8.09065 35.0464 8.10882C35.0354 8.59779 35.211 9.21695 34.9649 9.5394C34.6984 9.8891 34.0198 9.65597 33.5245 9.65294C33.1389 9.65143 33.0323 9.75588 33.0308 10.1313C33.0261 11.6013 33.012 11.5907 34.526 11.6028C37.0479 11.624 39.5698 11.5453 42.0902 11.6497C43.5698 11.7103 44.9882 12.0115 46.344 12.5762C46.7045 12.7261 46.9349 12.77 47.0791 12.3188C47.217 11.8904 47.5666 11.6225 48.0446 11.6225C48.5509 11.6225 48.8957 11.9101 49.0383 12.3627C49.1856 12.832 49.4208 12.7972 49.7891 12.5944C50.2624 12.334 50.7703 12.1326 51.2483 11.8813C51.5022 11.7481 51.6464 11.7345 51.7749 12.0327C51.9756 12.5005 52.4568 12.991 52.3815 13.3952C52.311 13.7721 51.5728 13.8766 51.1261 14.0976C50.1104 14.5987 50.1057 14.5911 50.5853 15.6024C53.5649 21.8803 56.5162 28.1704 59.5475 34.4256C60.1008 35.567 60.1181 36.6176 59.7544 37.7515C58.8783 40.4871 56.394 42.4233 53.4364 42.5065C49.8016 42.608 46.1638 42.6246 42.529 42.5005C39.0307 42.3809 36.1169 39.4046 36.0338 36.0106C36.0244 35.6382 36.1577 35.3112 36.3128 34.9842C39.4711 28.3308 42.6215 21.6729 45.8001 15.0271C46.0227 14.5608 45.891 14.4473 45.4741 14.2899C44.0901 13.763 42.6544 13.5466 41.1795 13.5405C38.6372 13.5314 36.0965 13.5466 33.5543 13.5299C33.1499 13.5269 33.0292 13.6283 33.0308 14.0295C33.0417 25.5287 33.0402 37.0294 33.0339 48.5286C33.0339 48.8178 33.1232 49.0206 33.3348 49.2205C34.2847 50.1197 35.2235 51.028 36.153 51.9469C36.3599 52.1513 36.5699 52.2406 36.8693 52.236C37.9241 52.2194 38.9805 52.2088 40.0369 52.236C42.6983 52.3042 44.6246 54.0027 45.0055 56.546C45.1042 57.2015 44.9522 57.692 44.3425 58.022H15.7207C15.111 57.6935 14.959 57.2015 15.0577 56.546C15.4386 54.0027 17.3633 52.3042 20.0247 52.236C21.0796 52.2088 22.136 52.2209 23.1908 52.236C23.4886 52.2406 23.7002 52.1558 23.9087 51.9499C24.8381 51.0325 25.7738 50.1212 26.7268 49.2265C26.9603 49.007 27.0293 48.7799 27.0293 48.4772C27.023 36.9991 27.0215 25.5211 27.0356 14.0431C27.0356 13.589 26.8757 13.5269 26.4651 13.5299C23.9635 13.5466 21.462 13.5345 18.9605 13.5405C17.4448 13.5435 15.9731 13.7661 14.5515 14.305C14.1267 14.4655 14.0672 14.6047 14.2631 15.0135C17.4401 21.6775 20.5968 28.3505 23.7582 35.0221C23.9134 35.349 24.0435 35.6745 24.0294 36.0484C23.9055 39.4622 21.0169 42.3854 17.4997 42.502C13.8665 42.6231 10.2271 42.6382 6.59706 42.4959C3.72094 42.3839 1.71627 40.8807 0.547012 38.3571C0.30407 37.8363 0.17868 37.2656 0 36.7191V35.4732V35.4717ZM2.57989 34.7798H21.4275C21.3492 34.5906 21.2912 34.4332 21.2191 34.2818C18.3132 28.1598 15.4088 22.0378 12.4951 15.9188C12.4026 15.725 12.4104 15.448 12.0264 15.4389C11.6064 15.4298 11.6173 15.7432 11.5186 15.949C10.3478 18.3894 9.19419 20.8388 8.03277 23.2837C6.2256 27.0955 4.41685 30.9059 2.57832 34.7798H2.57989ZM57.4692 34.7829C57.3955 34.6103 57.3344 34.4574 57.2639 34.3075C55.7561 31.1254 54.2483 27.9433 52.7389 24.7627C51.3188 21.7698 49.8957 18.7769 48.4709 15.7856C48.3973 15.6327 48.4004 15.4253 48.1026 15.4389C47.8408 15.451 47.717 15.5524 47.6402 15.7659C47.6152 15.837 47.5728 15.9021 47.5415 15.9702C45.0603 21.2051 42.5792 26.44 40.098 31.6734C39.6137 32.6953 39.1263 33.7171 38.62 34.7813H57.4692V34.7829ZM29.0308 30.9422V47.1435C29.0308 48.3606 29.0308 48.3273 30.3192 48.3757C30.9148 48.3984 31.0543 48.2425 31.0527 47.6688C31.0324 36.7357 31.0386 25.8027 31.0386 14.8712C31.0386 13.5345 31.0386 13.5556 29.6311 13.5269C29.1421 13.5163 29.0167 13.6465 29.0183 14.1188C29.0355 19.7261 29.0293 25.3349 29.0293 30.9422H29.0308ZM2.15513 36.7403C2.51563 38.7855 4.41998 40.5007 6.51713 40.5612C10.1487 40.6672 13.785 40.6566 17.4166 40.5658C19.3743 40.5173 21.1501 39.0973 21.7661 37.2989C21.9385 36.7963 21.8194 36.7282 21.3147 36.7297C15.1016 36.7448 8.88856 36.7403 2.67393 36.7403H2.15513ZM57.9237 36.76H38.2047C38.5119 38.7219 40.4554 40.4946 42.5071 40.5582C46.1387 40.6717 49.775 40.6611 53.4066 40.5658C55.6369 40.5082 57.4363 38.9354 57.9237 36.7584V36.76ZM17.274 56.0691H42.8362C42.8033 55.9692 42.7908 55.898 42.7579 55.836C42.1497 54.6718 41.1591 54.1556 39.8206 54.1571C33.4116 54.1662 27.0027 54.1601 20.5937 54.1617C20.321 54.1617 20.0467 54.1571 19.7739 54.1738C18.6078 54.2464 17.5561 55.0427 17.274 56.0691ZM30.0308 7.73035C30.2644 7.73035 30.5026 7.70462 30.7314 7.73641C31.1374 7.79242 31.3067 7.64709 31.3929 7.25198C31.5935 6.33458 31.8662 5.43081 32.0872 4.51645C32.3035 3.62025 31.9791 2.81336 31.2455 2.34104C30.5026 1.86267 29.5731 1.86115 28.8286 2.3365C28.0935 2.8058 27.7675 3.61419 27.9791 4.50888C28.1437 5.20525 28.3365 5.89405 28.512 6.58739C28.7053 7.34937 29.2116 7.73035 30.0308 7.73035ZM33.5543 52.2133C32.454 50.9336 31.0867 50.2938 29.4525 50.2938C29.2189 50.2938 28.9838 50.2907 28.7503 50.2938C28.617 50.2968 28.4791 50.268 28.3631 50.3725C27.7378 50.9462 27.1092 51.5185 26.4823 52.0922L26.592 52.2118H33.5543V52.2133ZM31.0402 10.7005C31.0402 10.0092 30.6896 9.66354 29.9885 9.66354C29.349 9.66354 29.0293 9.96429 29.0293 10.5658C29.0293 11.2561 29.3798 11.6013 30.081 11.6013C30.7205 11.6013 31.0402 11.301 31.0402 10.7005Z" fill="#F0DE00"/>
</g>
</svg>
