<svg width="60" height="59" viewBox="0 0 60 59" fill="none" xmlns="http://www.w3.org/2000/svg">
<g id="it expert">
<path id="Vector" d="M20.1324 4.69577C20.4111 4.67118 20.6443 4.85909 20.8573 5.09616C21.7935 6.14455 22.7344 7.18768 23.6628 8.24485C24.145 8.79451 24.1778 9.4109 23.7818 9.86046C23.3794 10.3153 22.8346 10.2767 22.3446 9.73227C21.3895 8.67334 20.4439 7.60387 19.4936 6.54143C19.1696 6.17967 19.0662 5.75821 19.2557 5.28933C19.4122 4.90123 19.7003 4.69577 20.1324 4.69577Z" fill="#F0DE00"/>
<path id="Vector_2" d="M40.7259 5.71973C40.7212 6.07446 40.5819 6.34666 40.3643 6.59076C39.4218 7.63915 38.4903 8.69983 37.5446 9.74471C37.0578 10.2838 36.4988 10.3137 36.1027 9.84832C35.7239 9.40403 35.7536 8.79466 36.2076 8.27837C37.1533 7.20188 38.1114 6.1412 39.0617 5.06997C39.3826 4.70822 39.7568 4.58529 40.1795 4.79075C40.5318 4.96285 40.7056 5.29476 40.7243 5.71973H40.7259Z" fill="#F0DE00"/>
<path id="Vector_3" d="M18.0836 14.4848C17.9836 14.4845 17.884 14.484 17.7848 14.4836C17.3101 14.4814 16.8427 14.4792 16.3717 14.4889C16.1372 14.4945 15.9901 14.5695 15.906 14.6524C15.8243 14.7331 15.7636 14.8585 15.7678 15.0469C15.7721 15.2309 15.8355 15.3561 15.9176 15.4356C16 15.5155 16.1368 15.5834 16.3487 15.5858L18.0836 14.4848ZM18.0836 14.4848L18.0855 14.489H18.41C18.6215 14.489 18.8295 14.4876 19.0356 14.4863C19.4904 14.4833 19.9354 14.4804 20.3864 14.4923C20.5947 14.4981 20.728 14.5682 20.8072 14.6492L18.0836 14.4848ZM20.3756 15.5858C19.0329 15.5998 17.6917 15.5998 16.3489 15.5858L20.3756 15.5858ZM20.9442 15.041C20.9422 15.2255 20.8798 15.3533 20.798 15.4345C20.7165 15.5155 20.5823 15.5835 20.3759 15.5858L20.9442 15.041Z" fill="#F0DE00" stroke="#F0DE00"/>
<path id="Vector_4" d="M29.6127 5.76627L29.6127 5.76671C29.6184 6.27877 29.9023 6.42229 30.0618 6.4144L30.0865 6.91379M29.6127 5.76627L30.0508 0.500008C30.1635 0.499321 30.2499 0.541383 30.321 0.630161C30.3999 0.728488 30.4751 0.907686 30.4805 1.18436C30.4902 1.70986 30.488 2.23275 30.4856 2.76189C30.4846 2.99589 30.4836 3.23111 30.4836 3.46832C30.4836 3.70553 30.4846 3.94075 30.4856 4.17474C30.488 4.7038 30.4902 5.22661 30.4806 5.75203C30.4751 6.01598 30.4051 6.18383 30.3318 6.27705C30.2651 6.36183 30.1795 6.40849 30.0614 6.41442L30.0865 6.91379M29.6127 5.76627C29.594 4.21985 29.5939 2.67168 29.6127 1.12527M29.6127 5.76627L29.6127 1.12527M30.0865 6.91379C29.5542 6.94013 29.1206 6.4695 29.1127 5.77232L30.0865 6.91379ZM29.6127 1.12527C29.6195 0.65683 29.8819 0.501275 30.0506 0.500009L29.6127 1.12527Z" fill="#F0DE00" stroke="#F0DE00"/>
<path id="Vector_5" d="M43.9815 14.4942L43.9807 14.4941C43.5105 14.4808 43.045 14.4836 42.5697 14.4866C42.3659 14.4878 42.1604 14.4891 41.9518 14.4891C41.7478 14.4891 41.5463 14.4881 41.3463 14.4871C40.8864 14.4849 40.4343 14.4828 39.9777 14.4925C39.7191 14.4984 39.5864 14.572 39.5197 14.6392C39.4552 14.7043 39.3914 14.8249 39.3957 15.0543L39.3957 15.0551C39.3995 15.2722 39.4635 15.3893 39.5282 15.453C39.5933 15.517 39.7185 15.5851 39.9578 15.5876M43.9815 14.4942L44.5235 15.0425C44.5219 15.26 44.4583 15.3825 44.3919 15.4498C44.3264 15.5163 44.2039 15.5845 43.9745 15.5876C42.6357 15.6034 41.2964 15.6016 39.9578 15.5876M43.9815 14.4942C44.211 14.5003 44.3333 14.5697 44.3981 14.6367M43.9815 14.4942L44.3981 14.6367M39.9578 15.5876L39.9526 16.0876M39.9578 15.5876L39.9526 16.0876M39.9526 16.0876C41.2943 16.1017 42.6375 16.1034 43.9808 16.0876L38.8958 15.0638C38.9068 15.6942 39.2841 16.0806 39.9526 16.0876ZM44.3981 14.6367C44.463 14.7039 44.5251 14.8255 44.5235 15.0425L44.3981 14.6367Z" fill="#F0DE00" stroke="#F0DE00"/>
<path id="Vector_6" d="M52.9361 28.3153C53.0723 28.3153 53.2085 28.3153 53.3463 28.3153C55.1608 28.3135 56.9737 28.3205 58.7882 28.3118C59.3518 28.3082 59.8434 28.1748 60 27.4495V26.661C59.701 26.1254 59.2673 25.9814 58.7147 25.9884C56.5088 26.0148 54.3028 25.999 52.0954 25.999C50.6331 25.999 50.0648 26.5978 50.0523 28.2257C50.0492 28.663 49.9083 28.7192 49.5764 28.7139C48.4241 28.6946 47.2718 28.6928 46.1211 28.7139C45.6342 28.7227 45.2178 28.5787 44.7998 28.2942C41.2162 25.8637 37.6185 23.4596 34.0333 21.0292C33.108 20.4023 32.1374 20.0669 31.0446 20.0809C28.7604 20.1125 26.4762 20.1143 24.1921 20.0809C22.4778 20.0563 21.1533 20.8044 20.1356 22.348C18.8613 24.2833 17.5368 26.1781 16.2483 28.1028C16.0417 28.4136 15.8287 28.5453 15.4765 28.54C13.817 28.519 12.1575 28.5102 10.4979 28.5436C10.0517 28.5523 9.95468 28.4154 9.95938 27.9324C9.97034 26.8331 9.32845 26.02 8.42041 26.0095C5.92175 25.9814 3.42152 25.9884 0.922854 26.006C0.288794 26.0113 -0.138609 26.6716 0.0414328 27.3178C0.204253 27.9008 0.600345 28.1045 1.12794 28.1028C3.29471 28.094 5.46303 28.1116 7.6298 28.0887C8.01963 28.0852 8.10573 28.2099 8.10417 28.6314C8.09164 35.0921 8.08851 41.5528 8.10886 48.0117C8.11043 48.5473 7.94135 48.5982 7.54212 48.5947C5.37536 48.5754 3.20703 48.5807 1.04027 48.5877C0.420303 48.5894 0.0383017 48.974 0.014818 49.5764C-0.00866573 50.2068 0.381164 50.6757 1.01209 50.6792C3.45283 50.6933 5.89357 50.7056 8.33431 50.6722C9.31123 50.6599 9.94529 49.8661 9.97034 48.7616C9.9813 48.2365 9.97347 47.7096 9.97347 47.1846C9.97347 46.0905 9.97347 46.1081 10.9504 46.0975C11.2979 46.094 11.4044 46.166 11.3966 46.5928C11.3762 47.8607 11.86 48.881 12.7962 49.5957C13.3802 50.0417 14.1207 49.6712 14.2381 48.9091C14.3101 48.4472 14.1144 48.1241 13.8154 47.8291C13.1657 47.1863 13.0905 46.5541 13.5414 45.7411C13.7575 45.3512 13.9845 44.9684 14.2162 44.5908C14.7281 43.7479 15.4671 43.5336 16.1184 44.0324C16.7383 44.5065 16.837 45.3477 16.3657 46.1783C16.0933 46.6577 15.7959 47.1196 15.5407 47.6095C14.7 49.2287 15.1352 51.3588 16.4769 52.3194C16.8244 52.5688 17.1673 52.6162 17.5196 52.3774C17.8499 52.1543 17.9861 51.8101 17.9611 51.3764C17.9407 51.0129 17.7434 50.7881 17.5211 50.5633C16.8886 49.9206 16.8135 49.2796 17.2691 48.4665C17.4976 48.0591 17.7325 47.657 17.9767 47.2618C18.4526 46.4944 19.165 46.303 19.8006 46.7596C20.4315 47.2127 20.5709 48.038 20.1356 48.8318C19.8491 49.3534 19.5204 49.8451 19.248 50.3736C18.4417 51.9401 18.8346 53.9947 20.1153 55.0062C20.6382 55.4189 21.1815 55.361 21.5134 54.8587C21.8265 54.3846 21.7404 53.8226 21.2816 53.352C20.6022 52.6566 20.5255 52.0244 21.0233 51.1551C21.2331 50.7863 21.4492 50.4228 21.6699 50.0628C22.1709 49.2427 22.8723 49.032 23.5236 49.5009C24.167 49.9645 24.2907 50.8004 23.8288 51.6258C23.5392 52.1438 23.2136 52.639 22.9459 53.1711C22.1646 54.727 22.556 56.7272 23.8195 57.7458C24.3361 58.162 24.8778 58.104 25.2175 57.5965C25.5416 57.1101 25.4617 56.5727 24.9905 56.0933C24.3173 55.4084 24.2359 54.8008 24.7134 53.9561C24.9749 53.4942 25.2332 53.0289 25.5291 52.5951C25.9486 51.9752 26.6328 51.8365 27.198 52.2123C27.7585 52.5863 27.9667 53.3309 27.7099 54.0421C27.6363 54.2441 27.5455 54.439 27.4845 54.6445C27.2606 55.4066 27.4265 55.8527 28.0637 56.1986C28.5726 56.4743 29.0814 56.7483 29.598 56.9994C31.3045 57.8301 33.2693 56.9713 34.0051 55.0642C34.1429 54.7077 34.121 54.13 34.3401 53.9947C34.5938 53.8384 35.0306 54.0931 35.3891 54.1106C37.1519 54.1897 38.5453 52.9007 38.885 50.8812C38.9273 50.6265 38.9007 50.4808 39.242 50.537C41.3962 50.8829 42.8068 49.7309 43.2812 47.2776C43.3297 47.0283 43.3673 46.9317 43.646 46.9563C45.3399 47.1055 46.738 46.08 47.2311 44.3748C47.7259 42.6591 47.1513 40.9346 45.689 39.9108C39.9199 35.8735 34.146 31.8468 28.3675 27.8288C26.9944 26.8735 25.5729 27.1668 24.5756 28.5822C23.439 30.196 22.3259 31.8327 21.1861 33.4431C20.2531 34.7602 18.7626 34.9972 17.6683 34.0331C16.5708 33.0673 16.4237 31.4078 17.3254 30.0591C18.7861 27.8692 20.2609 25.6917 21.7153 23.4965C22.3087 22.5992 23.0742 22.1794 24.0699 22.1882C26.3353 22.2075 28.5992 22.2181 30.8646 22.1812C31.7194 22.1672 32.4583 22.4183 33.1832 22.9117C36.7324 25.3229 40.3003 27.6971 43.8495 30.1082C44.5603 30.5912 45.2945 30.8282 46.1196 30.8107C47.2327 30.7861 48.3458 30.8388 49.4574 30.7896C49.9615 30.7668 50.0507 30.9424 50.0492 31.4727C50.0304 37.1449 50.0366 42.8171 50.0382 48.4894C50.0382 49.9855 50.6676 50.6845 52.0155 50.6862C54.2214 50.6897 56.4289 50.6704 58.6348 50.6985C59.1984 50.7056 59.6556 50.5651 59.9953 50.047V49.2585C59.8403 48.5333 59.3471 48.3998 58.7835 48.3963C56.8328 48.3875 54.8821 48.3963 52.933 48.391C52.1377 48.3875 52.1001 48.3489 52.1001 47.4743C52.0969 41.3929 52.0969 35.3116 52.1001 29.2284C52.1001 28.3539 52.1377 28.3205 52.933 28.3118L52.9361 28.3153ZM17.5853 36.3775C19.4374 37.2134 21.3944 36.5637 22.7298 34.6601C23.7897 33.1463 24.8433 31.6255 25.8985 30.1082C26.4856 29.2636 26.7784 29.1968 27.5659 29.7447C33.2568 33.7135 38.9461 37.6823 44.6338 41.6529C45.365 42.1639 45.6186 42.7539 45.4824 43.56C45.3681 44.2308 44.8828 44.7401 44.244 44.8648C43.7884 44.9543 43.4002 44.7559 43.0322 44.4977C41.4322 43.3721 39.8338 42.2411 38.2353 41.112C38.038 40.9715 37.8439 40.8222 37.6404 40.6958C37.1425 40.3849 36.6322 40.4921 36.3457 40.9539C36.0451 41.4404 36.1468 42.069 36.6228 42.4449C37.1159 42.8347 37.6341 43.1859 38.1414 43.553C38.9774 44.1553 39.8197 44.7471 40.6479 45.3617C41.4416 45.9518 41.6608 46.9317 41.2037 47.743C40.759 48.5333 39.9308 48.7176 39.0932 48.2312C37.5339 47.3233 36.0858 46.2117 34.6173 45.1422C34.3527 44.9491 34.0865 44.7524 33.7531 44.8279C33.357 44.9192 33.0799 45.1861 32.9859 45.6322C32.8779 46.1432 33.0752 46.5225 33.454 46.8C34.4325 47.5182 35.4141 48.2295 36.3848 48.9617C36.9218 49.3674 37.1378 49.968 37.0126 50.6739C36.892 51.3518 36.4975 51.7891 35.8995 51.9699C35.4329 52.1104 35.0212 51.9436 34.6235 51.6714C33.5088 50.9093 32.4082 50.1225 31.3327 49.2919C30.8411 48.9126 30.2869 49.0373 29.991 49.5237C29.6857 50.0259 29.7906 50.6019 30.2696 51.0146C30.409 51.134 30.5561 51.2412 30.7002 51.3518C31.0697 51.6363 31.4485 51.9085 31.8055 52.2105C32.4615 52.7637 32.6196 53.6769 32.2094 54.4232C31.8196 55.1309 31.0305 55.368 30.3056 55.0519C29.7953 54.8289 29.5557 54.6059 29.6497 53.8578C29.9268 51.6697 28.4097 49.8503 26.4434 49.9294C26.0238 49.9469 25.8985 49.8047 25.7623 49.3955C25.3005 48.0082 24.0809 47.1126 22.7439 47.1705C22.3603 47.1881 22.1834 47.1196 22.0394 46.6718C21.5666 45.2107 20.3486 44.3432 18.9301 44.4205C18.5967 44.438 18.4793 44.3502 18.3571 43.9955C17.8922 42.6292 16.9779 41.8214 15.6878 41.6827C14.4714 41.551 13.4365 42.0778 12.7915 43.2509C12.4377 43.8936 12.0338 44.0833 11.4185 44.0095C10.9582 43.9533 10.3445 44.1641 10.069 43.9007C9.77777 43.6232 9.98599 42.9155 9.98286 42.3974C9.9719 40.7116 9.97817 39.0257 9.97817 37.3399C9.97817 35.2817 9.98912 33.2236 9.96877 31.1654C9.96408 30.7352 10.0658 30.6122 10.4525 30.6193C11.8177 30.6456 13.1845 30.6386 14.5512 30.6228C14.8753 30.6193 14.9645 30.6772 14.9223 31.0917C14.6765 33.5151 15.7082 35.5205 17.5884 36.3705L17.5853 36.3775Z" fill="#F0DE00"/>
</g>
</svg>
