<svg width="53" height="48" viewBox="0 0 53 48" fill="none" xmlns="http://www.w3.org/2000/svg">
<g id="logo">
<g id="logo_2">
<path id="path3811" d="M19.0487 47.9429C14.9309 47.8151 7.48446 47.4474 5.96887 47.2975C3.4854 47.0513 1.71628 46.0318 0.930187 44.3954C0.38247 43.2544 0.2573 42.3707 0.0834975 38.4216C-0.0201463 36.0655 -0.0297134 27.1272 0.0683495 25.1294C0.131333 23.8551 0.141697 23.8038 0.390442 23.5576C0.643971 23.3067 0.667091 23.3028 2.09737 23.257C3.24862 23.2199 3.56513 23.182 3.63529 23.0724C3.68312 22.9958 3.70146 22.6005 3.67515 22.1942C3.54998 20.2689 3.47424 16.8334 3.53882 16.0349C3.63051 14.9011 3.82902 14.318 4.30578 13.7814C4.80646 13.218 5.48174 12.8464 6.34358 12.6594C6.72866 12.5758 7.09699 12.4661 7.16077 12.4156C7.24927 12.3462 7.27717 11.6692 7.27717 9.60346C7.27717 6.47333 7.35371 5.90286 7.93491 4.70588C8.198 4.16381 8.4332 3.83478 8.77921 3.52706C9.39469 2.97947 10.4295 2.48158 11.1957 2.36401C12.1325 2.22041 18.5106 2.32535 27.6918 2.63544C33.6075 2.83507 40.0828 2.92818 40.2199 2.81535C40.3196 2.73329 40.3523 2.43582 40.3531 1.58602C40.3531 0.968992 40.3858 0.419032 40.4232 0.363799C40.5101 0.235974 42.1525 -0.0630718 42.3518 0.011887C42.4786 0.0600184 42.5001 0.271481 42.5001 1.44005C42.5001 2.41294 42.5328 2.83192 42.6133 2.88084C42.6755 2.91871 43.4576 2.98183 44.3505 3.02128C46.1173 3.0994 46.2895 3.1278 46.4154 3.36057C46.543 3.59728 46.2775 4.96785 46.075 5.1154C45.9506 5.20614 45.6166 5.22192 44.6957 5.18089C44.0276 5.1509 43.3101 5.10593 43.1012 5.08068C42.4108 4.99783 42.4275 4.91025 42.3861 8.76707C42.3582 11.3733 42.3765 12.1907 42.4642 12.2625C42.5479 12.3312 42.8007 12.1363 43.4034 11.5374C43.857 11.0868 44.4885 10.5637 44.8058 10.3736C47.2422 8.91778 49.7089 9.52139 51.1838 11.9343C51.6327 12.6681 52.3383 14.5926 52.6269 15.8669C52.9896 17.4694 53.0582 18.3997 52.9585 20.3218C52.9099 21.2497 52.8294 22.8033 52.7784 23.7746C52.7273 24.7459 52.6205 26.0352 52.5408 26.6412C52.3566 28.0378 51.6455 31.5561 51.3289 32.6332C50.7501 34.6058 49.5853 36.419 48.2906 37.3595C47.7373 37.7619 46.6211 38.203 45.953 38.2835C44.8377 38.4176 43.5644 37.956 42.5918 37.0644C41.9572 36.4829 41.7618 36.4703 41.7371 37.0092C41.7196 37.3982 41.7212 37.38 41.6223 38.2835C41.4613 39.7606 40.904 41.7395 40.3842 42.6855C40.0788 43.241 39.563 43.7042 38.9061 44.0111C38.0211 44.4254 37.0891 44.5319 33.8586 44.5887C32.2139 44.6179 30.8059 44.6739 30.7286 44.7134C30.6512 44.7528 30.5093 45.0077 30.4128 45.2791C29.9815 46.4926 29.0216 47.3716 27.6456 47.8127C27.2055 47.9539 26.7231 47.98 24.2819 47.9973C22.7145 48.0084 20.3602 47.9839 19.0503 47.9437L19.0487 47.9429ZM26.4353 45.9648C27.3872 45.7967 27.8712 45.5379 28.2036 45.0195C28.5377 44.498 28.6716 43.903 28.6716 42.9388C28.6716 42.2153 28.6804 42.1853 28.9889 41.8799C29.2449 41.6266 29.3796 41.5659 29.6826 41.5659C30.1633 41.5659 30.593 41.9075 30.7262 42.3952C30.7788 42.5893 30.8745 42.766 30.9382 42.7873C31.002 42.8086 32.3366 42.7984 33.9032 42.7652C38.1742 42.6745 38.4755 42.5656 39.0248 40.9189C39.6459 39.0591 39.677 38.7695 40.1251 30.7939C40.3212 27.3024 40.4081 5.29688 40.2271 5.15169C40.0932 5.04517 37.8298 4.9639 33.2495 4.90236C31.3735 4.87711 29.5032 4.8345 29.0918 4.80846C27.7859 4.72482 20.4599 4.49048 16.1523 4.395C11.6996 4.29637 11.1734 4.32557 10.5778 4.70194C9.40984 5.44127 9.21929 6.16008 9.09811 10.2765C9.04788 11.999 9.05904 12.3414 9.17385 12.455C9.26793 12.5482 9.82043 12.6389 10.9788 12.7501C11.8973 12.8385 13.275 12.9774 14.0411 13.0579C15.7584 13.2394 15.6843 13.2922 15.6851 11.8901C15.6859 10.0019 15.9992 9.07164 16.9168 8.23053C17.7795 7.43991 17.9772 7.40282 21.2906 7.40992C22.8062 7.41308 24.6144 7.46437 25.308 7.52355C29.551 7.88729 29.7168 7.90702 30.1505 8.09639C31.2141 8.56034 31.9117 9.32887 32.3956 10.5708C32.9832 12.0787 33.051 13.4256 32.8788 20.2058C32.8293 22.1634 32.7679 25.3677 32.7432 27.3253C32.6922 31.2981 32.626 31.8654 32.0967 32.8194C31.6143 33.6897 30.8617 34.1118 29.3629 34.3548C29.0599 34.4038 27.8592 34.444 26.6944 34.4448C25.5296 34.4448 24.5099 34.4708 24.4286 34.5016C24.305 34.5482 24.2811 34.7423 24.2811 35.6844C24.2811 37.3769 23.9654 38.3103 22.976 39.542C22.3828 40.2797 21.8192 40.739 21.0331 41.1217L20.4208 41.4199L18.6596 41.4578C16.6848 41.4996 14.6072 41.3844 11.4349 41.0569C10.2533 40.9346 8.36144 40.7887 7.23093 40.7319C6.10041 40.6751 4.58722 40.5946 3.86729 40.552C2.94646 40.4983 2.52152 40.5054 2.43302 40.5772C2.26161 40.7153 2.37562 42.2374 2.61559 43.0059C2.92174 43.9874 3.81627 44.7426 5.22263 45.2049C5.83652 45.4069 6.19609 45.448 8.11908 45.5363C9.32692 45.5916 11.1766 45.6784 12.2297 45.7281C18.7099 46.0366 25.3973 46.1478 26.4369 45.964L26.4353 45.9648ZM20.1705 39.1609C20.6161 38.936 21.4501 38.0365 21.8048 37.3997L22.0855 36.8963L22.1158 32.9204C22.1325 30.7339 22.1174 28.1838 22.0823 27.2551C22.0241 25.7196 22.0018 25.5571 21.8391 25.4703C21.7403 25.4182 20.7253 25.3503 19.5837 25.3203L17.5076 25.2651L16.0486 26.7233L14.5896 28.1814L12.7791 28.1167C10.656 28.0402 9.12761 27.8658 8.66281 27.6464C8.44276 27.5423 8.06725 27.1517 7.54744 26.4858C6.91601 25.6762 6.70075 25.4647 6.43686 25.3937C6.02707 25.2833 2.29589 25.0639 2.09817 25.1396C1.96902 25.1886 1.95227 25.636 1.95307 29.0123C1.95387 33.767 2.09977 38.2409 2.25922 38.3932C2.33576 38.4657 3.47663 38.551 5.73607 38.6512C7.58571 38.7332 9.79332 38.8603 10.6408 38.9329C15.8533 39.381 16.6992 39.4292 18.4819 39.3755C19.5558 39.3432 19.8994 39.2998 20.1712 39.1625L20.1705 39.1609ZM46.7152 35.783C47.7381 35.4287 48.4046 34.7217 48.9579 33.4041C49.398 32.3562 50.0557 29.5954 50.3499 27.5596C50.6951 25.1728 50.9471 21.0177 50.8801 18.8258C50.8354 17.366 50.7964 17.067 50.4974 15.8834C50.314 15.1591 50.1004 14.4434 50.0222 14.2935C49.5614 13.4121 48.816 12.6192 48.0905 12.2396C47.7716 12.0724 47.5316 12.0266 46.9743 12.025C46.3445 12.0234 46.1914 12.0597 45.6246 12.3462C45.1103 12.6065 44.8233 12.8488 44.1584 13.5826C42.9147 14.9555 42.5543 15.8148 42.4594 17.6256C42.414 18.4959 42.3143 23.1521 42.2625 26.8179C42.2561 27.2756 42.2195 28.6903 42.1804 29.9615L42.1102 32.2734L42.4435 32.948C42.8708 33.8136 43.2352 34.3335 43.8172 34.9095C44.7316 35.8146 45.7449 36.1199 46.7152 35.7846V35.783ZM27.9374 32.3239C28.741 32.2797 29.4872 32.1968 29.5957 32.1392C29.9321 31.9609 30.1474 31.3944 30.2518 30.416C30.3052 29.911 30.3921 27.1888 30.4439 24.3664C30.4958 21.544 30.5595 18.694 30.5851 18.0328C30.7509 13.7309 30.7517 13.3293 30.5954 12.4416C30.4025 11.3472 30.0613 10.6395 29.5598 10.2931C29.2034 10.0469 29.0862 10.0264 26.991 9.83938C25.359 9.69341 24.0116 9.63975 21.7434 9.63028L18.6915 9.61766L18.438 9.84885C17.8911 10.3475 17.8847 10.398 17.8712 14.3337C17.86 17.5412 17.7253 21.7231 17.6001 22.7481C17.5228 23.3848 17.4574 23.3683 20.0891 23.3935C22.6435 23.418 23.2311 23.4984 23.5213 23.863C23.7342 24.1313 23.8538 25.3432 24.0507 29.2442C24.1296 30.8081 24.2118 32.1369 24.2333 32.1984C24.2708 32.3041 24.7324 32.3554 25.9633 32.3893C26.2456 32.3972 27.1345 32.3673 27.9382 32.3239H27.9374ZM14.7371 25.2911L15.5758 24.3664L15.6285 23.6957C15.7305 22.3985 15.7887 15.6301 15.6986 15.4992C15.646 15.4218 15.3909 15.3563 15.064 15.3343C14.2819 15.283 12.0201 15.0557 10.5467 14.8806C9.85311 14.7977 8.71782 14.7243 8.0242 14.7172C6.88014 14.7046 6.72626 14.7227 6.36909 14.9121C5.93538 15.1409 5.83652 15.279 5.74563 15.7793C5.67229 16.1801 5.65475 23.0353 5.7265 23.1497C5.75361 23.1931 6.09085 23.2531 6.47433 23.2815C6.85861 23.3099 7.2405 23.3714 7.32341 23.4172C7.40633 23.4629 8.00268 24.08 8.64925 24.7885L9.82362 26.0762L11.47 26.1259C12.3756 26.1528 13.2925 26.1843 13.5078 26.1954C13.8928 26.2151 13.9128 26.2009 14.7379 25.2904L14.7371 25.2911Z" fill="#F0DE00"/>
</g>
</g>
</svg>
