<svg width="150" height="22" viewBox="0 0 150 22" fill="none" xmlns="http://www.w3.org/2000/svg">
<g clip-path="url(#clip0_1349_12144)">
<path d="M0.0393988 3.06489C0.0229411 3.06888 0.00997438 3.06439 0 3.05093V2.60308C0.0164577 2.60857 0.0324167 2.60757 0.047877 2.60059C0.0448847 2.75519 0.0423911 2.90979 0.0393988 3.06489Z" fill="#F7E001"/>
<path d="M14.2029 21.9566C14.3216 21.9661 14.4488 21.9047 14.5565 22H14.2074C14.1925 21.992 14.187 21.9825 14.1905 21.9726C14.1945 21.9621 14.1984 21.9566 14.2029 21.9566Z" fill="#F7E001"/>
<path d="M15.5537 21.9999C15.6624 21.9066 15.7891 21.9635 15.9083 21.958C15.9203 21.969 15.9233 21.9789 15.9178 21.9874C15.9128 21.9954 15.9078 21.9994 15.9028 21.9994H15.5537V21.9999Z" fill="#F7E001"/>
<path d="M14.2029 21.9567C14.2054 21.9712 14.2069 21.9856 14.2074 22.0001H13.9082C13.9945 21.9058 14.1037 21.9647 14.2024 21.9567H14.2029Z" fill="#F7E001"/>
<path d="M15.9023 22C15.9038 21.986 15.9058 21.9721 15.9078 21.9581C16.0071 21.9636 16.1148 21.9052 16.2016 22H15.9023Z" fill="#F7E001"/>
<path d="M91.5989 10.5858C91.5989 12.4331 91.5914 14.2798 91.6019 16.1271C91.6073 17.0707 91.6482 18.0143 91.6697 18.9578C91.6836 19.5713 91.6438 20.1827 91.5794 20.7921C91.5465 21.1043 91.4099 21.2769 91.1051 21.3118C90.363 21.3966 89.617 21.4295 88.8694 21.416C88.6514 21.412 88.5452 21.2669 88.5213 21.0624C88.4614 20.5522 88.448 20.0395 88.4305 19.5269C88.3293 16.6039 88.3587 13.6789 88.3253 10.7554C88.3163 9.97639 88.3587 9.19839 88.3397 8.41989C88.3377 8.32863 88.3766 8.20045 88.2375 8.17253C88.0869 8.1426 88.0979 8.28424 88.0674 8.36802C87.6854 9.41683 87.5253 10.516 87.3428 11.6087C86.9069 14.221 86.6047 16.8532 86.1394 19.461C86.0436 19.9982 85.9204 20.5308 85.7923 21.0614C85.696 21.4589 85.508 21.5626 85.103 21.5362C84.5814 21.5023 84.0587 21.4878 83.5361 21.4744C83.0618 21.4624 82.8763 21.3103 82.801 20.844C82.6154 19.6969 82.5895 18.5364 82.5077 17.3809C82.3945 15.78 82.3666 14.1701 82.0544 12.5892C81.8394 11.501 81.5058 10.4417 81.23 9.36796C81.226 9.352 81.22 9.33604 81.214 9.32108C81.1482 9.1565 81.0509 8.93906 80.8894 8.95951C80.7587 8.97596 80.834 9.21934 80.8345 9.35848C80.841 10.8083 80.855 12.258 80.8679 13.7078C80.8879 15.9032 80.9088 18.0985 80.9313 20.2939C80.9338 20.5168 80.9702 20.7378 80.9338 20.9622C80.9023 21.1557 80.8061 21.2654 80.6086 21.2689C79.8366 21.2824 79.0646 21.3053 78.293 21.2983C77.8771 21.2943 77.6761 21.0639 77.6706 20.648C77.6492 18.9997 77.6277 17.351 77.6128 15.7027C77.5888 13.06 77.5679 10.4173 77.5504 7.77405C77.5405 6.24149 77.6497 4.71241 77.7285 3.18334C77.7479 2.80731 77.9768 2.59884 78.3524 2.58288C79.3653 2.53949 80.3777 2.56493 81.3896 2.61131C82.0584 2.64223 82.4 2.93498 82.5501 3.5883C83.1271 6.10384 83.6832 8.62437 84.3061 11.1289C84.352 11.314 84.4078 11.495 84.5051 11.6621C84.5689 11.7713 84.6238 11.7867 84.6981 11.671C84.8023 11.5085 84.8686 11.3319 84.9195 11.1469C85.6247 8.57848 86.3304 6.01008 87.0366 3.44217C87.2051 2.82925 87.3258 2.75045 87.9652 2.75693C88.9866 2.76741 90.0074 2.75045 91.0273 2.69061C91.5445 2.66018 91.6961 2.79135 91.6836 3.30802C91.6403 5.10441 91.5829 6.89979 91.5405 8.69618C91.5256 9.32556 91.538 9.95595 91.538 10.5858H91.5989Z" fill="#F7E001"/>
<path d="M105.566 13.9242C105.566 11.7443 105.57 9.5644 105.565 7.3845C105.562 6.07536 105.545 4.76672 105.537 3.45759C105.535 3.03617 105.399 2.64567 105.274 2.25118C105.128 1.79286 105.2 1.69162 105.671 1.64374C106.193 1.59038 106.717 1.61731 107.24 1.6213C107.565 1.6238 107.81 1.78189 107.939 2.0911C108.026 2.29707 108.11 2.50403 108.19 2.712C108.247 2.86012 108.314 2.88954 108.437 2.76736C108.608 2.59879 108.781 2.42923 108.971 2.2826C110.407 1.17445 113.29 1.12358 114.605 3.04913C115.054 3.70645 115.197 4.43807 115.21 5.21408C115.234 6.58655 115.031 7.93758 114.836 9.29011C114.593 10.9693 114.352 12.6485 114.112 14.3277C113.951 15.4583 113.793 16.5894 113.635 17.7205C113.603 17.9499 113.585 18.1798 113.608 18.4127C113.654 18.8795 113.935 19.1922 114.407 19.2086C115.253 19.2386 116.099 19.26 116.946 19.2296C117.743 19.2007 118.541 19.2226 119.338 19.2046C121.487 19.1563 123.636 19.0994 125.785 19.0436C126.914 19.0141 128.042 18.9807 129.17 18.9488C130.398 18.9144 131.626 18.8755 132.853 18.8476C133.368 18.8356 133.537 18.9912 133.602 19.5014C133.654 19.9118 133.714 20.3223 133.743 20.7342C133.784 21.3122 133.509 21.6065 132.93 21.6194C132.133 21.6379 131.336 21.6474 130.539 21.6578C128.887 21.6798 127.235 21.6838 125.583 21.7257C124.329 21.7576 123.075 21.7411 121.821 21.7551C119.87 21.776 117.918 21.7905 115.966 21.788C114.937 21.7865 113.908 21.7521 112.88 21.7172C112.078 21.6903 111.501 21.2913 111.128 20.5926C110.734 19.8525 110.628 19.051 110.691 18.2311C110.891 15.6553 111.244 13.0958 111.529 10.5284C111.68 9.16244 111.848 7.79844 111.998 6.43295C112.044 6.00504 112.052 5.57415 111.975 5.14525C111.856 4.48046 111.541 4.18721 110.866 4.16826C110.273 4.1518 109.691 4.24955 109.131 4.44704C108.729 4.58918 108.505 4.88991 108.429 5.30684C108.382 5.56916 108.375 5.83398 108.372 6.0988C108.37 6.38906 108.372 6.67881 108.372 6.96907C108.365 9.51303 108.359 12.057 108.35 14.6015C108.342 16.723 108.332 18.8441 108.321 20.9656C108.321 21.0728 108.313 21.1806 108.3 21.2873C108.247 21.7262 108.064 21.9042 107.621 21.9167C107.172 21.9291 106.724 21.9277 106.275 21.9172C105.85 21.9072 105.627 21.6868 105.583 21.2579C105.571 21.1427 105.569 21.0265 105.569 20.9103C105.568 18.5812 105.568 16.2522 105.568 13.9232L105.566 13.9242Z" fill="#F7E001"/>
<path d="M139.466 5.83933C139.411 5.13464 139.469 4.43195 139.496 3.72876C139.515 3.24799 139.694 3.08242 140.167 3.04551C140.738 3.00112 141.309 2.95774 141.882 2.95923C142.308 2.96023 142.476 3.11184 142.483 3.54074C142.498 4.54316 142.556 5.5426 142.626 6.54253C142.742 8.19429 142.855 9.84654 142.964 11.4983C143.007 12.1591 143.038 12.8209 143.076 13.4817C143.081 13.5725 143.098 13.6622 143.107 13.7525C143.197 14.6811 143.591 14.8517 144.466 14.9325C144.696 14.9534 144.929 14.944 145.161 14.8996C146.049 14.731 146.417 14.3211 146.46 13.4139C146.491 12.7586 146.404 12.1072 146.364 11.4549C146.296 10.3807 146.203 9.30843 146.135 8.23418C146.043 6.7884 145.917 5.34361 145.918 3.89283C145.918 3.70232 145.926 3.51281 145.957 3.3233C145.999 3.06795 146.14 2.92731 146.396 2.89091C146.834 2.82857 147.275 2.86398 147.714 2.84552C147.947 2.83555 148.179 2.84104 148.412 2.84453C148.738 2.84901 148.848 2.94427 148.87 3.26794C148.924 4.04444 148.976 4.82045 149.055 5.59496C149.187 6.88814 149.31 8.18182 149.431 9.47599C149.513 10.3418 149.568 11.2095 149.576 12.0793C149.589 13.5615 149.584 15.0437 149.606 16.5259C149.612 16.9643 149.618 17.4031 149.629 17.842C149.642 18.3926 149.547 18.9332 149.435 19.4643C149.183 20.6538 148.328 21.3999 147.071 21.6004C146.126 21.751 145.175 21.7959 144.22 21.8258C142.94 21.8662 141.663 21.8218 140.385 21.7919C140.053 21.7839 139.721 21.7679 139.391 21.7415C138.832 21.6966 138.332 21.4966 137.873 21.1735C136.527 20.2249 135.537 19.023 135.13 17.3977C135.028 16.9887 134.927 16.5788 134.833 16.1678C134.723 15.6935 134.867 15.4442 135.338 15.3075C135.985 15.12 136.649 15.0981 137.314 15.1404C137.701 15.1649 137.948 15.4611 137.998 15.903C138.123 17.0067 138.572 17.9338 139.477 18.6135C140.105 19.0848 140.824 19.3576 141.574 19.5556C143.032 19.9406 144.483 19.8783 145.924 19.4614C146.368 19.3327 146.547 19.0963 146.572 18.6345C146.605 17.9941 146.534 17.3622 146.42 16.7334C146.398 16.6107 146.367 16.478 146.202 16.5683C145.613 16.8915 144.973 16.9313 144.32 16.9448C143.64 16.9593 142.959 16.9857 142.289 16.8401C140.927 16.5448 140.142 15.6417 139.986 14.2622C139.723 11.9322 139.573 9.59519 139.47 7.2542C139.449 6.78341 139.467 6.31062 139.467 5.83884L139.466 5.83933Z" fill="#F7E001"/>
<path d="M120.443 5.90512C120.443 7.1968 120.443 8.48898 120.443 9.78066C120.443 9.8056 120.446 9.83054 120.447 9.85497C120.462 10.2116 120.56 10.3786 120.778 10.4255C120.988 10.4704 121.219 10.3288 121.359 10.046C121.639 9.47794 121.785 8.86552 121.941 8.25608C122.337 6.70157 122.622 5.12013 123.085 3.58159C123.168 3.3043 123.256 3.02801 123.414 2.78064C123.636 2.43304 123.941 2.24452 124.365 2.254C124.872 2.26547 125.377 2.20811 125.884 2.24851C125.95 2.254 126.017 2.25749 126.082 2.26896C126.667 2.37568 126.806 2.64848 126.539 3.18012C126.078 4.09976 125.878 5.09969 125.626 6.08516C125.291 7.39878 125.036 8.73335 124.591 10.0186C124.477 10.3502 124.314 10.6554 124.09 10.9262C123.797 11.2793 123.753 11.6618 123.99 12.0533C124.429 12.7755 124.859 13.5016 125.27 14.2402C125.422 14.5145 125.688 14.5963 125.979 14.6357C126.904 14.7614 127.834 14.7315 128.763 14.7125C129.717 14.693 130.67 14.6392 131.619 14.5399C131.85 14.516 132.081 14.4856 132.313 14.4726C132.694 14.4507 132.859 14.5529 133.019 14.8955C133.216 15.315 133.281 15.7493 133.15 16.1997C133.03 16.6156 132.738 16.854 132.303 16.8834C130.604 16.9991 128.903 17.0495 127.202 17.0136C126.29 16.9941 125.379 16.9413 124.485 16.7283C124.073 16.6301 123.766 16.4161 123.534 16.066C123.071 15.3678 122.644 14.6492 122.247 13.9131C121.979 13.4178 121.571 13.1336 121.009 13.0647C120.563 13.0099 120.374 13.141 120.297 13.5804C120.237 13.925 120.262 14.2746 120.255 14.6217C120.243 15.1683 120.256 15.7154 120.25 16.2625C120.243 16.9328 120.043 17.1418 119.385 17.2375C118.919 17.3053 118.457 17.2585 117.993 17.2405C117.82 17.234 117.729 17.1213 117.66 16.9807C117.52 16.6959 117.519 16.3857 117.512 16.082C117.48 14.6831 117.461 13.2837 117.431 11.8843C117.384 9.71583 117.338 7.5469 117.278 5.37897C117.26 4.73413 117.248 4.08828 117.188 3.44444C117.14 2.93275 117.329 2.72279 117.84 2.643C118.341 2.5647 118.844 2.52281 119.352 2.54525C120.018 2.57517 120.373 2.92128 120.383 3.59455C120.394 4.36457 120.385 5.1351 120.385 5.90562H120.443L120.443 5.90512Z" fill="#F7E001"/>
<path d="M64.9156 8.34158C64.9156 10.919 64.9121 13.4958 64.9191 16.0732C64.9201 16.4772 64.9071 16.8846 65.0004 17.2851C65.0727 17.5938 65.2577 17.7788 65.5709 17.8292C65.9484 17.8901 66.3285 17.8975 66.711 17.8906C67.6984 17.8731 68.6859 17.8522 69.6674 18.0117C69.9786 18.0626 70.1432 18.2182 70.207 18.5329C70.3202 19.0925 70.2993 19.6545 70.2768 20.2166C70.2663 20.4784 70.0718 20.6111 69.8374 20.6565C69.5861 20.7053 69.3283 20.7422 69.0724 20.7457C67.4426 20.7672 65.8193 20.6884 64.2189 20.3477C63.0494 20.0989 62.4524 19.3708 62.3612 18.1808C62.2315 16.4877 62.1906 14.7905 62.0978 13.0964C62.0175 11.6326 61.9736 10.1679 61.9457 8.70265C61.9263 7.68427 61.9003 6.66588 61.8739 5.648C61.8654 5.32483 61.7762 5.23456 61.4485 5.24254C60.1862 5.27346 58.9235 5.26249 57.6617 5.23007C56.6832 5.20514 55.7052 5.15127 54.7268 5.11636C54.5033 5.10838 54.2794 5.13182 54.0555 5.13232C53.7333 5.13282 53.6021 5.02211 53.5483 4.70692C53.4685 4.24161 53.4186 3.77232 53.3957 3.30053C53.3772 2.92449 53.475 2.79882 53.856 2.77438C54.2699 2.74795 54.6859 2.75842 55.1013 2.75393C57.1525 2.73049 59.2033 2.70755 61.2545 2.68361C62.1163 2.67314 62.2824 2.47116 62.1437 1.62483C62.0968 1.33907 62.0495 1.0523 62.025 0.764042C61.9946 0.398979 62.1093 0.230412 62.4609 0.151614C63.1292 0.00199868 63.8119 -0.0249321 64.4917 0.0219475C64.9685 0.0553616 65.142 0.302726 65.1016 0.778006C65.0672 1.18247 65.0308 1.58643 64.9919 1.98989C64.951 2.41131 65.0976 2.5719 65.5245 2.56093C66.8277 2.52751 68.1313 2.50407 69.4355 2.51155C70.3232 2.51704 70.4978 2.70057 70.4524 3.58929C70.4404 3.82169 70.417 4.0511 70.3681 4.27852C70.2913 4.6366 70.0649 4.8311 69.7073 4.89543C69.3781 4.95478 69.0475 4.96276 68.7153 4.96226C67.8107 4.96076 66.9045 4.93832 66.0133 5.1423C66.0053 5.14429 65.9968 5.14429 65.9888 5.14579C65.0213 5.36872 64.8787 5.54576 64.8787 6.52624C64.8787 7.13119 64.8787 7.73663 64.8787 8.34158H64.9161H64.9156Z" fill="#F7E001"/>
<path d="M21.1741 20.3559C21.1292 19.8183 21.019 19.2926 20.9023 18.768C20.8106 18.3565 20.6929 18.2782 20.2739 18.3246C20.1587 18.3371 20.0455 18.366 19.9323 18.39C18.6436 18.6642 17.3614 18.9754 16.0438 19.0872C14.7322 19.1984 13.4255 19.2059 12.1383 18.8692C10.3709 18.4074 9.15549 17.3721 8.67422 15.5672C8.60839 15.3198 8.5261 15.076 8.44581 14.8326C8.31315 14.4301 8.31165 14.4321 8.6837 14.2466C9.78238 13.6995 10.5085 12.8527 10.7384 11.6328C11.1509 9.44442 11.2312 7.24208 10.9035 5.03774C10.6856 3.57201 9.68563 2.57706 8.23236 2.29279C7.63389 2.17559 7.02645 2.18457 6.42251 2.16761C5.36871 2.13869 4.31442 2.15864 3.26013 2.18357C2.46367 2.20252 1.66622 2.19853 0.869268 2.21599C0.545599 2.22297 0.208964 2.23195 0.0493734 2.601C0.00199511 2.74812 0.0389003 2.89923 0.0269311 3.04835C0.0438875 3.46977 0.0683248 3.89119 0.0738107 4.31211C0.104731 6.86355 0.0274298 9.4155 0.125179 11.9664C0.146125 12.512 0.146624 13.0586 0.162583 13.6047C0.202979 14.9697 0.261828 16.3337 0.319679 17.6982C0.369052 18.8563 0.423912 20.0128 0.524154 21.1673C0.56455 21.6351 0.745585 21.8122 1.22436 21.8216C1.82232 21.8336 2.42028 21.8271 3.01825 21.8236C3.11001 21.8231 3.20028 21.8102 3.29005 21.7927C3.77281 21.6995 3.95385 21.482 3.96382 20.9913C3.97429 20.4856 3.92642 19.9814 3.91993 19.4772C3.90248 18.0438 3.91345 16.61 3.91395 15.1762C3.91395 15.0849 3.91395 14.9942 3.92592 14.9034C3.94936 14.7294 4.0501 14.6246 4.22315 14.6286C4.7877 14.6421 5.2939 14.7787 5.59214 15.3218C6.05944 16.1726 6.50529 17.0299 6.79704 17.9635C7.16909 19.1535 7.9416 20.0422 8.99191 20.698C10.0083 21.3329 11.1289 21.675 12.3039 21.87C12.7877 21.9503 13.2769 21.9348 13.7602 21.9997H13.9098C14.0075 21.9458 14.1128 21.9872 14.214 21.9742C14.3282 21.9872 14.4469 21.9453 14.5581 21.9997H15.5551C15.6663 21.9453 15.785 21.9867 15.8997 21.9742C16.0004 21.9872 16.1056 21.9458 16.2034 21.9997H16.353C16.6113 21.9079 16.8836 21.9259 17.15 21.9019C18.2581 21.8017 19.3578 21.6461 20.441 21.3917C21.0016 21.2601 21.223 20.9254 21.1751 20.3554L21.1741 20.3559ZM7.58951 10.7152C7.52617 11.2498 7.16061 11.6178 6.62947 11.7061C5.83402 11.8388 5.03008 11.8707 4.22664 11.9021C3.89899 11.9151 3.75137 11.7829 3.73441 11.4508C3.69401 10.6414 3.69401 9.82894 3.62868 9.02201C3.52694 7.75975 3.55138 6.4965 3.54739 5.23324C3.54639 4.87466 3.54789 4.87915 3.90348 4.83027C4.6725 4.72554 5.43903 4.69263 6.20008 4.89062C6.21604 4.89461 6.23249 4.8976 6.24845 4.90159C7.30624 5.19534 7.60098 5.57486 7.61794 6.69399C7.62741 7.31489 7.61943 7.9358 7.61943 8.5567C7.61594 9.27586 7.67429 9.998 7.58951 10.7147V10.7152Z" fill="#F7E001"/>
<path d="M103.404 11.0369C103.388 10.026 103.401 9.01513 103.401 8.00422C103.401 6.99332 103.401 5.89963 103.401 4.84683C103.401 4.29026 103.255 3.77708 102.897 3.34668C102.246 2.5632 101.42 2.08792 100.397 1.95276C99.2853 1.80564 98.1776 1.85103 97.0689 1.96573C96.4266 2.03206 95.8097 2.1722 95.2756 2.56519C94.5589 3.09284 94.2302 3.8449 94.0163 4.67278C93.7954 5.52758 93.8253 6.39386 93.8467 7.26412C93.8786 8.56379 93.8851 9.86445 93.9001 11.1646C93.918 12.7381 93.928 14.312 93.9525 15.8855C93.9654 16.7049 93.9958 17.5243 94.0298 18.3432C94.0547 18.9391 94.1918 19.5082 94.5399 20.0059C95.11 20.8208 95.9448 21.2238 96.8769 21.4497C98.1517 21.7589 99.4269 21.6831 100.702 21.4203C102.09 21.1345 102.903 20.2802 103.222 18.9252C103.344 18.404 103.325 17.8699 103.328 17.3427C103.342 15.2406 103.436 13.14 103.403 11.0369H103.404ZM100.36 8.07853H100.295C100.295 9.96618 100.305 11.8538 100.291 13.7415C100.282 15.0072 100.239 16.273 100.21 17.5392C100.19 18.4185 99.7426 18.8753 98.8609 18.9257C98.4798 18.9476 98.1013 18.9845 97.7198 18.9242C97.259 18.8509 96.9737 18.599 96.858 18.1467C96.7278 17.6365 96.7004 17.1163 96.7074 16.5942C96.7418 14.0198 96.7802 11.4459 96.8216 8.87199C96.8395 7.75486 96.8695 6.63823 96.8914 5.5211C96.9029 4.9351 97.1308 4.66231 97.7158 4.60745C98.3796 4.54511 99.0429 4.59298 99.7002 4.69871C99.976 4.7431 100.157 4.92314 100.25 5.18496C100.334 5.42136 100.362 5.66673 100.361 5.91758C100.359 6.63823 100.36 7.35888 100.36 8.07903V8.07853Z" fill="#F7E001"/>
<path d="M33.272 10.6844C33.276 9.75926 33.1059 8.87802 32.6626 8.05314C31.8432 6.52756 30.2837 5.81489 28.6439 6.2393C27.9841 6.41036 27.4071 6.75398 26.8445 7.12502C26.5872 7.29509 26.5513 7.27863 26.5418 6.96344C26.5199 6.24329 26.5064 5.52314 26.4924 4.80299C26.481 4.20652 26.475 3.61055 26.4645 3.01408C26.461 2.80512 26.4086 2.60713 26.3308 2.41213C26.2491 2.20616 26.1149 2.12337 25.8895 2.13783C25.309 2.17524 24.7339 2.25054 24.1629 2.35877C23.758 2.43557 23.5689 2.68892 23.5894 3.10086C23.6966 5.24984 23.8233 7.39832 23.9026 9.5483C23.9799 11.6414 24.0138 13.7365 24.0562 15.8312C24.0861 17.2964 24.0931 18.7621 24.1779 20.2254C24.2008 20.6179 24.3434 20.8164 24.6766 20.9066C25.1254 21.0278 25.4222 20.9376 25.6341 20.5979C25.7658 20.3875 25.874 20.163 26.0032 19.9506C26.2356 19.5686 26.4291 19.5396 26.7483 19.8498C27.3931 20.4762 28.1477 20.8802 29.0479 20.9824C30.0004 21.0907 30.9111 20.9899 31.6766 20.3411C32.3409 19.7775 32.6666 19.0255 32.8027 18.1861C33.1508 16.0476 33.2381 13.8897 33.272 11.7277C33.272 11.3796 33.271 11.0315 33.272 10.6834V10.6844ZM30.0059 16.8635C29.9894 17.7961 29.2663 18.4734 28.3342 18.4769C27.434 18.4799 26.7483 17.836 26.7278 16.8979C26.7004 15.6731 26.7169 14.4467 26.7238 13.2214C26.7283 12.3935 26.7398 11.5656 26.7009 10.7382C26.644 9.53334 27.4355 8.64861 28.5621 8.67155C29.4424 8.68951 30.0084 9.25655 30.0109 10.1318C30.0144 11.2415 30.0119 12.3506 30.0114 13.4603C30.0114 14.5948 30.0269 15.7294 30.0064 16.8635H30.0059Z" fill="#F7E001"/>
<path d="M45.8418 4.36453C45.6123 3.15564 44.5536 2.1961 43.23 1.95223C42.4669 1.81159 41.7089 1.90086 40.9473 1.93427C39.8536 1.98265 38.7574 1.97966 37.6722 2.15421C36.1202 2.40407 35.05 3.42195 34.7243 4.959C34.5687 5.69362 34.6764 6.42973 34.7133 7.16235C34.824 9.34424 34.9582 11.5251 35.0909 13.7065C35.1677 14.9703 35.213 16.236 35.3402 17.4968C35.4863 18.9486 36.2828 19.8627 37.6533 20.2931C38.7614 20.6407 39.9035 20.7834 41.1353 20.7699C41.7797 20.7749 42.4899 20.715 43.197 20.6088C44.3675 20.4323 45.1675 19.8004 45.5814 18.6887C45.7595 18.2105 45.8507 17.7132 45.8617 17.207C45.8946 15.6919 45.928 14.1763 45.9315 12.6612C45.937 10.4 45.9255 8.13834 45.9001 5.87715C45.8946 5.37394 45.9365 4.86375 45.8422 4.36503L45.8418 4.36453ZM42.84 16.7552C42.7602 17.625 42.4141 17.997 41.5508 18.0534C40.8047 18.1023 40.0576 18.0698 39.3275 17.8803C38.4537 17.6534 37.975 17.0769 37.939 16.1717C37.9031 15.262 37.8857 14.3514 37.8697 13.4412C37.8553 12.6133 37.9201 11.7785 37.8328 10.9591C37.6538 9.27941 37.7999 7.60072 37.751 5.92253C37.7281 5.14802 37.8857 4.65977 38.9086 4.61389C39.6791 4.57948 40.4466 4.4932 41.2186 4.48722C41.3513 4.48622 41.4854 4.48722 41.6161 4.50716C42.4475 4.63384 42.8165 5.02484 42.826 5.87266C42.8435 7.42168 42.831 8.9707 42.831 10.5197C42.8355 10.5197 42.84 10.5197 42.8449 10.5197C42.8449 11.9695 42.8434 13.4193 42.8454 14.8691C42.8464 15.4974 42.8983 16.1258 42.8405 16.7547L42.84 16.7552Z" fill="#F7E001"/>
<path d="M59.8802 9.84719C59.8622 9.47464 59.7455 9.13402 59.545 8.82082C58.8413 7.72314 57.8045 7.20797 56.5313 7.18851C55.4869 7.17256 54.4416 7.23789 53.3968 7.26282C52.5595 7.28277 51.7206 7.27679 50.8868 7.37753C50.021 7.48226 49.214 7.73411 48.5692 8.35452C47.7299 9.16245 47.473 10.1833 47.5473 11.3034C47.675 13.2275 47.877 15.1456 48.07 17.0637C48.1238 17.5993 48.1872 18.1349 48.4306 18.6271C48.9652 19.7079 49.8958 20.241 51.0344 20.4534C52.8567 20.7931 54.6975 20.8055 56.5397 20.6938C57.3222 20.6465 58.0568 20.4205 58.6698 19.8974C59.4702 19.2136 59.765 18.3055 59.8213 17.2956C59.9081 15.7495 59.9201 14.2015 59.933 12.6535C59.933 11.7179 59.926 10.7823 59.8807 9.84719H59.8802ZM56.9247 11.1134C56.829 12.1797 56.8993 13.2494 56.8529 14.3167C56.817 15.1441 56.8729 15.973 56.7911 16.7993C56.7103 17.6132 56.2694 18.0312 55.449 18.0741C54.3374 18.1329 53.2257 18.1688 52.1151 18.0696C51.8927 18.0496 51.6692 18.0202 51.4513 17.9723C51.0698 17.8885 50.8449 17.6442 50.794 17.2557C50.6883 16.4492 50.6977 15.6368 50.6798 14.9655C50.6798 14.3531 50.7157 13.8778 50.6718 13.4095C50.5955 12.5991 50.6469 11.7892 50.6329 10.9798C50.6219 10.3285 50.8414 10.0671 51.4782 9.921C52.159 9.7644 52.8477 9.81477 53.5359 9.8437C54.4311 9.8816 55.3273 9.90554 56.2225 9.94743C56.6335 9.96638 56.807 10.1394 56.8953 10.5449C56.9367 10.7344 56.9422 10.9239 56.9252 11.1134H56.9247Z" fill="#F7E001"/>
<path d="M21.7059 13.5235C21.6845 13.1145 21.5418 12.9679 21.1334 12.9804C20.6855 12.9938 20.2382 13.0213 19.7908 13.0497C19.5016 13.0681 19.3066 13.2237 19.2348 13.5025C19.0343 14.277 18.4717 14.6157 17.7391 14.7259C16.622 14.8944 15.8624 14.3204 15.6998 13.2083C15.6579 12.9215 15.6395 12.6303 15.5752 12.349C15.5233 12.1221 15.6161 12.0692 15.8096 12.0607C16.1497 12.0458 16.4898 12.0318 16.8284 12.0014C17.6713 11.9251 18.5191 11.9016 19.3545 11.754C20.4352 11.563 20.8975 11.0613 21.0441 9.97707C21.1653 9.07938 21.1783 8.17919 21.1573 7.27701C21.1344 6.28256 21.0621 5.29211 20.8456 4.31811C20.5165 2.83641 19.2911 1.91777 17.772 2.01652C17.1182 2.05891 16.4654 2.12075 15.8111 2.15766C15.1512 2.19456 14.5752 2.38457 14.1628 2.93765C13.9134 3.27229 13.7124 3.63187 13.5573 4.01788C12.8392 5.80529 12.5988 7.67549 12.5948 9.58558C12.5903 11.1396 12.7619 12.6771 13.0761 14.1967C13.4107 15.8161 14.5523 16.7906 16.2105 16.8828C17.0818 16.9312 17.9506 16.8459 18.8208 16.7896C20.6681 16.6704 21.7837 15.0012 21.7064 13.5235H21.7059ZM15.3393 10.197C15.2834 8.69387 15.1084 7.19223 15.2545 5.6856C15.2704 5.52102 15.2924 5.35694 15.3218 5.19436C15.4066 4.72157 15.6929 4.43281 16.1522 4.30614C16.8883 4.10316 17.5665 4.14256 18.1077 4.76646C18.2872 4.97342 18.3909 5.20184 18.4004 5.48411C18.4213 6.10452 18.4637 6.72393 18.4513 7.29047C18.4583 8.13979 18.4398 8.93176 18.2962 9.71824C18.2239 10.1137 18.0254 10.3177 17.6164 10.3795C17 10.4723 16.3806 10.5162 15.7607 10.5586C15.4699 10.5785 15.3497 10.4788 15.3393 10.197Z" fill="#F7E001"/>
<path d="M136.87 8.82998C136.308 8.76315 135.744 8.73721 135.18 8.77911C134.916 8.79856 134.727 8.93122 134.653 9.19703C134.58 9.46036 134.401 9.6389 134.181 9.78303C133.705 10.0952 133.183 10.2204 132.617 10.1606C131.784 10.0723 131.238 9.62793 131.083 8.8993C131.022 8.61453 131.032 8.32278 131.032 8.03302C131.031 7.60213 131.033 7.58966 131.477 7.59964C132.622 7.62557 133.767 7.62906 134.912 7.57171C135.997 7.51685 136.864 6.81415 137.099 5.79377C137.426 4.37691 136.363 2.7092 134.938 2.40448C134.465 2.30324 133.984 2.2783 133.503 2.26234C132.592 2.23242 131.682 2.1611 130.775 2.35112C129.389 2.64187 128.465 3.60589 128.307 5.01029C128.222 5.76684 128.221 6.53088 128.229 7.38968C128.202 7.91433 128.248 8.53474 128.28 9.15514C128.356 10.6318 129.136 11.5994 130.503 11.8427C131.947 12.1001 133.405 12.1659 134.864 11.951C136.217 11.7515 137.23 10.571 137.204 9.24391C137.2 9.00702 137.108 8.8589 136.87 8.83097V8.82998ZM131.952 4.3799C132.463 4.16795 132.99 4.08516 133.531 4.25273C134.06 4.41631 134.391 4.82626 134.363 5.26812C134.335 5.71448 133.93 6.095 133.39 6.18427C133.018 6.24561 132.643 6.18976 132.262 6.22517C131.98 6.22517 131.689 6.23364 131.398 6.22267C131.078 6.2107 131.006 6.12841 131.004 5.81372C130.999 5.12998 131.317 4.64223 131.951 4.37891L131.952 4.3799Z" fill="#F7E001"/>
</g>
<defs>
<clipPath id="clip0_1349_12144">
<rect width="149.629" height="22" fill="white"/>
</clipPath>
</defs>
</svg>
