<svg width="69" height="69" viewBox="0 0 69 69" fill="none" xmlns="http://www.w3.org/2000/svg">
<g id="monitoring" clip-path="url(#clip0_1758_8786)">
<path id="Vector" d="M67.5856 13.1723C67.2944 13.1633 67.0014 13.1705 66.7102 13.1687C65.7701 13.1669 65.8671 13.1112 65.3926 12.2771C64.6969 11.0584 64.7832 10.1632 65.9336 9.25728C66.7246 8.63354 66.6491 7.74017 65.9426 7.01396C64.6412 5.6802 63.3218 4.36261 61.9898 3.06119C61.2653 2.35297 60.4798 2.36555 59.7212 3.04861C59.5379 3.21398 59.3671 3.39374 59.1927 3.5681C58.3389 4.43091 58.4647 4.20083 57.4778 3.9294C56.0883 3.54473 55.6479 2.78797 55.8079 1.41286C55.9104 0.539259 55.558 0.217501 54.7186 0H48.2491C47.397 0.224691 47.1526 0.524879 47.1166 1.40567C47.1004 1.78675 47.0968 2.16962 47.113 2.5507C47.1346 3.01626 46.9692 3.32903 46.5 3.45845C46.3275 3.50698 46.1477 3.56091 46.0021 3.65977C44.9631 4.36081 44.1794 4.13792 43.3722 3.18163C42.5723 2.23433 41.7149 2.30264 40.8197 3.18163C39.5866 4.39316 38.3696 5.62268 37.1508 6.84679C36.9926 7.00677 36.7841 7.15597 36.7266 7.36268C36.5055 8.1554 35.9195 8.16798 35.2526 8.16618C25.3965 8.1536 15.5404 8.1554 5.68425 8.15899C2.62837 8.15899 0.566548 9.85047 0.00390625 12.8002V51.8821C0.14951 52.3477 0.124344 52.8474 0.350839 53.304C1.4204 55.4502 3.18382 56.5072 5.53865 56.5215C11.2154 56.5521 16.8921 56.5305 22.5671 56.5323C23.6888 56.5323 24.8105 56.5377 25.9322 56.5323C26.4085 56.5287 26.6296 56.7157 26.6224 57.2082C26.6098 58.1501 26.6098 59.092 26.6224 60.0357C26.6296 60.5264 26.4121 60.7188 25.934 60.7152C25.1035 60.708 24.273 60.6954 23.4443 60.7206C20.8738 60.7979 18.6879 62.9154 18.5459 65.4697C18.5082 66.1419 18.5172 66.816 18.5441 67.4883C18.5801 68.3888 18.8317 68.7088 19.6784 69.0018H45.2813C46.0902 68.7681 46.4245 68.2001 46.4227 67.3912C46.4227 66.807 46.4443 66.2228 46.4156 65.6404C46.2861 62.8866 44.0805 60.7529 41.3302 60.717C40.5896 60.708 39.849 60.7242 39.1084 60.7116C38.4199 60.699 38.3516 60.6271 38.3408 59.9207C38.33 59.2035 38.339 58.4845 38.339 57.7654C38.339 56.947 38.7423 56.5371 39.5488 56.5359C46.1693 56.5359 52.7916 56.5503 59.412 56.5269C61.5116 56.5198 63.1834 55.6497 64.305 53.8271C64.9504 52.7773 65.1571 51.6197 65.1571 50.4117C65.1571 43.7231 65.1697 37.0345 65.1427 30.3459C65.1391 29.4004 65.2757 28.6167 66.0253 27.9372C66.6635 27.3584 66.6149 26.5603 66.0775 25.8719C65.8833 25.6238 65.6496 25.4117 65.4285 25.1888C64.7131 24.4662 64.8263 24.4985 65.1104 23.5063C65.4825 22.2031 66.1889 21.7232 67.5299 21.8724C68.4521 21.9748 68.7666 21.6297 68.9985 20.7579V14.2886C68.781 13.4491 68.47 13.2029 67.582 13.1759L67.5856 13.1723ZM41.4363 63.62C42.5993 63.6236 43.4675 64.5763 43.5304 65.7501C43.5538 66.1689 43.4621 66.3181 42.9984 66.3163C39.4751 66.2947 35.9501 66.3037 32.4268 66.3037C28.9036 66.3037 25.4684 66.2929 21.9901 66.3163C21.5155 66.3199 21.3861 66.1995 21.4131 65.7285C21.4814 64.5655 22.3514 63.6218 23.5252 63.6182C29.495 63.602 35.4665 63.602 41.4363 63.6182V63.62ZM35.4485 60.4797C35.4557 60.8464 35.3317 60.9291 34.9919 60.9201C34.1399 60.8985 33.286 60.9129 32.434 60.9129C31.5819 60.9129 30.773 60.8931 29.9426 60.9219C29.5776 60.9345 29.4968 60.8087 29.5021 60.4671C29.5201 59.2322 29.5237 57.9973 29.5021 56.7642C29.495 56.4011 29.6118 56.3202 29.9551 56.322C31.6377 56.3382 33.322 56.34 35.0045 56.322C35.364 56.3184 35.4539 56.4281 35.4485 56.775C35.4288 58.0099 35.4252 59.2448 35.4485 60.4779V60.4797ZM62.2432 32.3034C62.2432 38.3683 62.2432 44.4314 62.2432 50.4962C62.2432 52.585 61.188 53.6365 59.0957 53.6365C41.3302 53.6365 23.5648 53.6365 5.79929 53.6365C3.75006 53.6365 2.70027 52.5832 2.69847 50.5286C2.69847 49.788 2.71285 49.0456 2.69128 48.305C2.6805 47.9671 2.75779 47.7927 3.12989 47.8485C3.26112 47.8682 3.39953 47.8521 3.53435 47.8521C19.7737 47.8521 36.0112 47.8521 52.2505 47.8521C53.5088 47.8521 54.1793 47.3667 54.1523 46.4751C54.1254 45.6087 53.4746 45.1576 52.2505 45.1576C35.9896 45.1576 19.7287 45.1522 3.46784 45.1755C2.80453 45.1755 2.63736 45.0102 2.68409 44.372C2.74521 43.5452 2.72364 42.7093 2.68769 41.8807C2.66971 41.4618 2.78835 41.3612 3.20539 41.363C6.39429 41.3827 9.58319 41.3756 12.7739 41.372C13.6421 41.372 14.194 40.9567 14.2982 40.2593C14.4349 39.3461 13.8399 38.6847 12.8368 38.6829C9.73779 38.6739 6.63697 38.6541 3.53794 38.699C2.83329 38.708 2.6787 38.5229 2.6823 37.8326C2.70926 29.9487 2.69847 22.0665 2.70027 14.1825C2.70027 12.0866 3.73927 11.053 5.84603 11.053C16.4014 11.053 26.9586 11.053 37.5139 11.053H38.233C37.9759 11.7289 37.7117 12.3634 37.496 13.0141C37.4079 13.2802 37.2425 13.2855 37.0358 13.2855C36.4749 13.2855 35.9123 13.2676 35.3515 13.2945C34.4796 13.3359 33.9781 13.8392 33.9727 14.7056C33.9583 16.5912 33.9565 18.4786 33.9727 20.366C33.9799 21.1947 34.4814 21.698 35.3119 21.7483C36.004 21.7897 36.9819 21.5164 37.3288 21.8741C37.9076 22.4709 38.073 23.4632 38.4397 24.2774C38.5458 24.5129 38.4073 24.6028 38.2887 24.7232C37.895 25.1223 37.4834 25.507 37.1005 25.9168C36.5019 26.5585 36.4839 27.2685 37.0933 27.8905C38.4289 29.253 39.7789 30.603 41.1451 31.9367C41.7383 32.5155 42.4375 32.4886 43.0703 31.9313C43.588 31.473 43.9708 30.6551 44.5856 30.5814C45.159 30.5113 45.7864 31.126 46.4263 31.2932C47.1346 31.4766 47.3413 31.8433 47.2586 32.5227C47.2065 32.9415 47.2335 33.3765 47.2712 33.8008C47.3341 34.5198 47.8249 35.0213 48.5439 35.0303C50.4978 35.0554 52.4518 35.0536 54.4058 35.0303C55.1302 35.0213 55.6102 34.5324 55.7018 33.8187C55.7072 33.7738 55.7126 33.7289 55.7162 33.6839C55.7683 32.9937 55.4178 32.0392 55.842 31.6689C56.473 31.117 57.4706 31.0002 58.258 30.5706C58.4881 30.4448 58.5816 30.6155 58.702 30.7306C58.977 30.9966 59.2431 31.2698 59.5127 31.5395C60.5643 32.5892 61.0119 32.6162 62.2486 31.606V32.3034H62.2432ZM64.9036 19.061C63.7801 19.07 63.4332 19.3324 63.1492 20.4164C62.8418 21.5937 62.3852 22.7064 61.7543 23.749C61.2258 24.6244 61.2941 25.1223 61.997 25.8449C62.3367 26.1954 62.9371 26.5621 62.9263 26.9072C62.9173 27.2721 62.3295 27.6298 61.9808 27.9786C61.6159 28.3417 61.2384 28.96 60.8627 28.9654C60.496 28.969 60.1221 28.3363 59.7536 27.9822C59.0903 27.344 58.569 27.2739 57.7637 27.7593C56.6815 28.4118 55.5257 28.8791 54.3033 29.1955C53.3344 29.4453 53.0432 29.8228 53.0216 30.8043C53.0109 31.2968 53.1924 31.9601 52.9426 32.2351C52.6442 32.5623 51.9683 32.3358 51.4578 32.3376C50.9688 32.3394 50.3037 32.5551 50.0377 32.2477C49.7896 31.9619 49.9514 31.3148 49.9388 30.8276C49.9154 29.8318 49.6314 29.4436 48.6805 29.1991C47.4348 28.8791 46.2646 28.392 45.1626 27.7287C44.4059 27.2739 43.8702 27.3584 43.2248 27.9588C42.8402 28.3165 42.5256 28.996 42.069 28.9582C41.6699 28.9241 41.3086 28.3237 40.9527 27.9516C40.6148 27.5993 40 27.3009 40.0216 26.8821C40.0395 26.528 40.6148 26.2044 40.9455 25.8683C41.6807 25.1205 41.749 24.619 41.2044 23.7184C40.5734 22.674 40.1222 21.5614 39.8202 20.3822C39.5632 19.3738 39.1857 19.0862 38.1683 19.0628C37.6811 19.052 37.0052 19.2138 36.759 18.9604C36.5055 18.6997 36.6511 18.031 36.6601 17.5421C36.6691 17.0316 36.4354 16.3557 36.7662 16.0573C37.043 15.8093 37.7063 15.9926 38.1988 15.98C39.1803 15.9567 39.5542 15.6673 39.8041 14.693C40.1186 13.4707 40.5914 12.3167 41.2421 11.2346C41.7311 10.4221 41.6466 9.8972 40.9653 9.19617C40.6256 8.84565 40.0252 8.48075 40.0324 8.13383C40.0413 7.76893 40.6291 7.41122 40.9761 7.0625C41.341 6.6994 41.7167 6.08105 42.0942 6.07565C42.4591 6.07026 42.8348 6.70299 43.2033 7.0589C43.8414 7.67546 44.3897 7.76174 45.1357 7.30876C46.2556 6.62929 47.4492 6.13857 48.7147 5.81321C49.5901 5.58852 49.9011 5.18947 49.9334 4.2925C49.9514 3.78021 49.7644 3.08097 50.0251 2.80415C50.3397 2.4716 51.0425 2.70708 51.5764 2.70169C53.0037 2.68731 53.0037 2.6963 53.0163 4.09298C53.0252 5.22183 53.2859 5.56515 54.3698 5.84737C55.5706 6.16014 56.7013 6.6275 57.7619 7.27101C58.5816 7.76893 59.0993 7.68804 59.8021 7.00677C60.1526 6.66704 60.5193 6.06846 60.8645 6.07745C61.2312 6.08824 61.5835 6.67783 61.9376 7.02115C62.227 7.30157 62.5129 7.58917 62.7951 7.87858C62.8724 7.95767 62.9371 8.04934 63.0198 8.14821C62.9083 8.26684 62.8041 8.37829 62.6962 8.48974C61.4235 9.80014 60.8339 9.81991 62.1479 12.0129C62.6567 12.8613 62.9353 13.814 63.1852 14.7703C63.4134 15.6385 63.8125 15.9531 64.7113 15.9836C65.2218 16.0016 65.9247 15.8201 66.1943 16.0825C66.5215 16.4007 66.2896 17.1017 66.2932 17.6356C66.3057 19.0556 66.2968 19.0556 64.8946 19.0664L64.9036 19.061Z" fill="#121212"/>
<path id="Vector_2" d="M31.0967 27.6118C30.9169 27.504 30.694 27.4501 30.6545 27.1607C30.5107 26.1091 30.6473 25.8107 31.6018 25.2535C31.6593 25.2193 31.7186 25.1888 31.7761 25.1528C32.657 24.6136 32.8457 23.9503 32.346 23.0569C31.8103 22.0988 31.2261 21.1677 30.712 20.2006C29.7701 18.4301 29.1984 18.1191 27.417 19.2965C27.266 19.3953 27.1312 19.5373 26.8813 19.4367C25.9017 19.0448 25.6896 18.7554 25.6842 17.6715C25.6842 17.605 25.6842 17.5367 25.6842 17.4702C25.6518 16.4024 25.1611 15.9117 24.1005 15.9063C23.0004 15.9009 21.8985 15.9423 20.8019 15.8973C18.8893 15.8182 18.3105 16.1796 18.4381 18.2287C18.4507 18.439 18.501 18.6619 18.2781 18.8417C17.4854 19.4816 17.0792 19.5212 16.1624 18.9981C16.1049 18.9657 16.0491 18.928 15.9898 18.8956C15.0479 18.3725 14.3918 18.5397 13.8453 19.46C13.2863 20.4037 12.7722 21.3762 12.188 22.3037C11.1921 23.8838 11.0878 24.583 13.0364 25.5627C13.218 25.6543 13.4337 25.7101 13.4678 26.0102C13.5973 27.1229 13.5074 27.3278 12.5079 27.9084C12.4306 27.9534 12.3533 27.9983 12.276 28.0451C11.4617 28.5502 11.264 29.2152 11.7296 30.0457C12.4414 31.3148 13.1694 32.5766 13.9118 33.8277C14.3468 34.5611 15.0641 34.7462 15.8209 34.3598C16.139 34.1962 16.4428 34.0039 16.7556 33.8313C16.8868 33.7594 16.9983 33.6551 17.187 33.7055C17.9672 33.9158 18.4399 34.5287 18.4417 35.361C18.4417 35.4509 18.4417 35.5408 18.4417 35.6306C18.4507 36.7918 18.9037 37.2466 20.0811 37.2574C21.1129 37.2664 22.1465 37.2286 23.1783 37.2664C25.1035 37.3347 25.8136 37.1352 25.6913 34.8613C25.6554 34.2034 26.8688 33.5617 27.453 33.8798C27.9383 34.1441 28.3715 34.5377 28.9683 34.5503C29.5454 34.5575 29.9408 34.2771 30.2194 33.79C30.7875 32.7995 31.3645 31.8145 31.9343 30.824C33.0075 28.9654 32.9428 28.7281 31.0949 27.6172L31.0967 27.6118ZM29.1157 30.3189C29.0582 30.3854 29.0241 30.4717 28.9791 30.549C28.6723 31.0787 28.2445 31.1955 27.6956 30.8995C27.4548 30.7683 27.2067 30.6766 26.867 30.6712C26.5236 30.6551 26.1983 30.8348 25.8999 31.0901C25.3678 31.5484 24.7674 31.8864 24.1131 32.1416C23.2125 32.4903 22.9429 32.8067 23.0094 33.7504C23.0615 34.4838 22.7811 34.6618 22.1429 34.5575C22.0998 34.5503 22.0513 34.5503 22.0081 34.5575C21.3484 34.6707 21.0392 34.4766 21.1237 33.7288C21.2118 32.9415 20.8091 32.4113 20.047 32.1524C19.4286 31.9421 18.8677 31.6149 18.3536 31.2087C17.4998 30.531 17.0935 30.4735 16.1768 31.0559C15.7238 31.3435 15.5225 31.2878 15.2726 30.8204C14.7387 29.821 14.7117 29.8336 15.6033 29.2278C16.1408 28.8611 16.3583 28.3704 16.2343 27.7215C16.0977 27.0097 16.1067 26.2907 16.2055 25.5752C16.3386 24.619 16.1912 24.2163 15.3175 23.7723C14.7819 23.5009 14.6201 23.2456 15.0407 22.7657C15.0838 22.7172 15.1054 22.6471 15.1378 22.5895C15.5926 21.7986 15.6033 21.7825 16.3691 22.23C17.0432 22.6255 17.6418 22.5608 18.2206 22.0611C18.7509 21.6027 19.3549 21.2702 20.0074 21.0131C20.8954 20.6644 21.1776 20.2977 21.1219 19.3288C21.086 18.6961 21.2999 18.4912 21.8895 18.5936C21.911 18.5972 21.9344 18.5936 21.956 18.5936C22.9339 18.5936 22.9429 18.5936 22.9878 19.5985C23.0166 20.251 23.297 20.7111 23.9207 20.934C24.6901 21.209 25.3786 21.6117 26.0005 22.1384C26.6063 22.6525 27.2445 22.5842 27.852 22.1456C28.3248 21.804 28.6645 21.7968 28.8659 22.4134C28.8856 22.4763 28.936 22.5266 28.9701 22.586C29.4267 23.3751 29.4357 23.393 28.6573 23.8298C28.0318 24.1822 27.7693 24.6819 27.8754 25.3883C27.9833 26.1001 28.0498 26.8155 27.897 27.531C27.7046 28.4333 28.0372 29.0714 28.8731 29.4327C29.3494 29.6395 29.4663 29.9001 29.1103 30.3135L29.1157 30.3189Z" fill="#121212"/>
<path id="Vector_3" d="M58.157 45.1594C57.4362 45.1774 56.8574 45.7777 56.8574 46.5075C56.8574 47.2481 57.4201 47.8305 58.1534 47.8485C58.8976 47.8665 59.5393 47.2481 59.5411 46.5111C59.5411 45.7813 58.8868 45.1396 58.157 45.1594Z" fill="#121212"/>
<path id="Vector_4" d="M18.2888 38.681C17.541 38.699 16.9461 39.3407 16.982 40.0903C17.0162 40.8111 17.6327 41.3881 18.3535 41.3684C19.0689 41.3504 19.6675 40.7392 19.6693 40.0256C19.6693 39.285 19.0312 38.6631 18.2906 38.681H18.2888Z" fill="#121212"/>
<path id="Vector_5" d="M32.4082 49.193C31.6874 49.2254 31.1158 49.8383 31.1301 50.5627C31.1445 51.2871 31.7431 51.8767 32.4639 51.8803C33.2045 51.8839 33.8336 51.244 33.8175 50.507C33.8013 49.7664 33.1488 49.1589 32.4082 49.193Z" fill="#121212"/>
<path id="Vector_6" d="M51.5404 9.16391C46.9153 9.14234 43.1296 12.8992 43.126 17.5098C43.1224 22.0971 46.8739 25.8648 51.4542 25.8738C56.0452 25.8827 59.8201 22.1385 59.8345 17.5602C59.8488 12.9639 56.1153 9.18368 51.5386 9.16391H51.5404ZM51.4308 23.1775C48.3318 23.1577 45.8098 20.598 45.8223 17.4847C45.8349 14.3821 48.3857 11.853 51.4955 11.8602C54.6035 11.8674 57.1381 14.4073 57.1381 17.517C57.1381 20.6501 54.5694 23.1972 51.429 23.1775H51.4308Z" fill="#121212"/>
<path id="Vector_7" d="M22.0404 25.2247C21.2944 25.2355 20.7048 25.8664 20.7282 26.6286C20.7498 27.3656 21.3304 27.9192 22.0746 27.9102C22.8008 27.903 23.3975 27.3116 23.4083 26.5944C23.4191 25.8682 22.7666 25.2157 22.0404 25.2247Z" fill="#121212"/>
</g>
<defs>
<clipPath id="clip0_1758_8786">
<rect width="69" height="69" fill="white"/>
</clipPath>
</defs>
</svg>
