<svg width="60" height="59" viewBox="0 0 60 59" fill="none" xmlns="http://www.w3.org/2000/svg">
<g id="monitoring" clip-path="url(#clip0_2104_491)">
<path id="Vector" d="M58.7696 11.0766C58.5164 11.069 58.2616 11.0751 58.0084 11.0735C57.1909 11.072 57.2753 11.0252 56.8626 10.3238C56.2577 9.299 56.3327 8.54625 57.3331 7.78443C58.0209 7.25993 57.9553 6.50869 57.341 5.89803C56.2093 4.77647 55.0619 3.66851 53.9037 2.57415C53.2737 1.97861 52.5907 1.98919 51.931 2.56357C51.7716 2.70263 51.6231 2.85379 51.4715 3.00041C50.729 3.72595 50.8384 3.53247 49.9803 3.30423C48.772 2.98076 48.389 2.3444 48.5281 1.18807C48.6172 0.453462 48.3109 0.182896 47.5809 0H41.9553C41.2143 0.188943 41.0018 0.44137 40.9705 1.18202C40.9564 1.50247 40.9533 1.82443 40.9674 2.14488C40.9861 2.53636 40.8423 2.79937 40.4343 2.9082C40.2843 2.94902 40.128 2.99436 40.0014 3.0775C39.0979 3.667 38.4164 3.47957 37.7145 2.67543C37.0189 1.87884 36.2733 1.93628 35.4949 2.67543C34.4226 3.6942 33.3644 4.7281 32.3046 5.75746C32.1671 5.89198 31.9857 6.01744 31.9357 6.19127C31.7435 6.85786 31.2339 6.86844 30.654 6.86693C22.0834 6.85635 13.5129 6.85786 4.94236 6.86088C2.28507 6.86088 0.492183 8.28324 0.00292969 10.7637V43.6276C0.129542 44.0191 0.107658 44.4393 0.30461 44.8232C1.23466 46.628 2.76807 47.5168 4.81575 47.5289C9.75205 47.5546 14.6884 47.5364 19.6231 47.5379C20.5985 47.5379 21.5739 47.5425 22.5492 47.5379C22.9635 47.5349 23.1557 47.6921 23.1495 48.1063C23.1385 48.8983 23.1385 49.6904 23.1495 50.4839C23.1557 50.8966 22.9666 51.0583 22.5508 51.0553C21.8286 51.0492 21.1065 51.0387 20.3859 51.0598C18.1506 51.1248 16.2499 52.9054 16.1264 55.0533C16.0936 55.6186 16.1014 56.1855 16.1249 56.7508C16.1561 57.5081 16.375 57.7771 17.1112 58.0235H39.3746C40.078 57.827 40.3687 57.3493 40.3671 56.6692C40.3671 56.1779 40.3859 55.6867 40.3609 55.1969C40.2483 52.8812 38.3304 51.087 35.9388 51.0568C35.2948 51.0492 34.6508 51.0629 34.0068 51.0523C33.4082 51.0417 33.3488 50.9812 33.3394 50.3872C33.33 49.7841 33.3378 49.1795 33.3378 48.5749C33.3378 47.8866 33.6885 47.542 34.3898 47.541C40.1467 47.541 45.9052 47.5531 51.6622 47.5334C53.4879 47.5274 54.9416 46.7958 55.917 45.2631C56.4781 44.3803 56.6579 43.4069 56.6579 42.3911C56.6579 36.7667 56.6688 31.1423 56.6454 25.5178C56.6422 24.7228 56.761 24.0637 57.4129 23.4924C57.9678 23.0056 57.9256 22.3345 57.4582 21.7556C57.2894 21.547 57.0862 21.3686 56.8939 21.1812C56.2718 20.5736 56.3703 20.6008 56.6172 19.7664C56.9408 18.6705 57.5551 18.267 58.7212 18.3924C59.5231 18.4786 59.7966 18.1884 59.9982 17.4553V12.0152C59.8091 11.3093 59.5387 11.1023 58.7665 11.0796L58.7696 11.0766ZM36.0311 53.4979C37.0424 53.501 37.7974 54.3021 37.8521 55.2891C37.8724 55.6413 37.7927 55.7668 37.3894 55.7653C34.3257 55.7471 31.2605 55.7547 28.1968 55.7547C25.1331 55.7547 22.146 55.7456 19.1213 55.7653C18.7087 55.7683 18.5961 55.667 18.6196 55.271C18.679 54.293 19.4355 53.4995 20.4562 53.4964C25.6473 53.4828 30.84 53.4828 36.0311 53.4964V53.4979ZM30.8243 50.8573C30.8306 51.1656 30.7227 51.2352 30.4273 51.2276C29.6864 51.2095 28.9439 51.2216 28.203 51.2216C27.4621 51.2216 26.7587 51.2049 26.0365 51.2291C25.7192 51.2397 25.6489 51.1339 25.6536 50.8467C25.6692 49.8083 25.6723 48.7698 25.6536 47.7329C25.6473 47.4276 25.7489 47.3596 26.0475 47.3611C27.5105 47.3747 28.9752 47.3762 30.4383 47.3611C30.7509 47.3581 30.829 47.4503 30.8243 47.742C30.8071 48.7804 30.804 49.8189 30.8243 50.8558V50.8573ZM54.1241 27.1639C54.1241 32.2638 54.1241 37.3623 54.1241 42.4622C54.1241 44.2186 53.2065 45.1029 51.3871 45.1029C35.9388 45.1029 20.4906 45.1029 5.0424 45.1029C3.26045 45.1029 2.3476 44.2171 2.34603 42.4894C2.34603 41.8666 2.35854 41.2424 2.33978 40.6196C2.3304 40.3355 2.39761 40.1888 2.72118 40.2357C2.83529 40.2523 2.95565 40.2387 3.07288 40.2387C17.194 40.2387 31.3136 40.2387 45.4347 40.2387C46.5289 40.2387 47.112 39.8306 47.0885 39.0809C47.0651 38.3523 46.4992 37.9729 45.4347 37.9729C31.2948 37.9729 17.1549 37.9684 3.01504 37.988C2.43826 37.988 2.29289 37.849 2.33353 37.3124C2.38667 36.6171 2.36792 35.9142 2.33665 35.2174C2.32102 34.8652 2.42419 34.7805 2.78683 34.7821C5.55979 34.7987 8.33275 34.7926 11.1073 34.7896C11.8622 34.7896 12.3421 34.4404 12.4328 33.854C12.5516 33.0861 12.0342 32.5299 11.162 32.5283C8.46717 32.5208 5.77081 32.5042 3.076 32.542C2.46327 32.5495 2.32884 32.3938 2.33196 31.8134C2.35541 25.1838 2.34603 18.5557 2.3476 11.9261C2.3476 10.1636 3.25107 9.29446 5.08304 9.29446C14.2616 9.29446 23.4418 9.29446 32.6204 9.29446H33.2456C33.0221 9.8628 32.7923 10.3964 32.6047 10.9436C32.5281 11.1673 32.3843 11.1718 32.2046 11.1718C31.7169 11.1718 31.2276 11.1567 30.7399 11.1794C29.9818 11.2141 29.5457 11.6373 29.541 12.3659C29.5285 13.9515 29.527 15.5386 29.541 17.1258C29.5473 17.8226 29.9834 18.2458 30.7055 18.2881C31.3073 18.3229 32.1577 18.0931 32.4594 18.3939C32.9627 18.8958 33.1065 19.7301 33.4254 20.4149C33.5176 20.6129 33.3972 20.6884 33.2941 20.7897C32.9517 21.1253 32.5938 21.4488 32.2608 21.7934C31.7403 22.333 31.7247 22.9301 32.2546 23.4531C33.416 24.5988 34.5899 25.734 35.7778 26.8555C36.2937 27.3423 36.9017 27.3196 37.4519 26.851C37.9021 26.4656 38.2351 25.7778 38.7696 25.7158C39.2683 25.6569 39.8138 26.1738 40.3703 26.3144C40.9861 26.4686 41.1659 26.7769 41.094 27.3483C41.0486 27.7005 41.0721 28.0663 41.1049 28.423C41.1596 29.0276 41.5864 29.4493 42.2116 29.4569C43.9107 29.4781 45.6098 29.4765 47.3089 29.4569C47.9388 29.4493 48.3562 29.0382 48.4359 28.4381C48.4406 28.4003 48.4453 28.3625 48.4484 28.3248C48.4937 27.7443 48.1889 26.9417 48.5578 26.6303C49.1065 26.1663 49.974 26.068 50.6587 25.7068C50.8587 25.601 50.94 25.7446 51.0447 25.8413C51.2839 26.065 51.5152 26.2948 51.7497 26.5215C52.6641 27.4042 53.0533 27.4269 54.1288 26.5774V27.1639H54.1241ZM56.4375 16.0284C55.4605 16.0359 55.1588 16.2566 54.9119 17.1681C54.6446 18.1581 54.2476 19.0938 53.6989 19.9705C53.2393 20.7066 53.2987 21.1253 53.9099 21.7329C54.2054 22.0277 54.7274 22.336 54.7181 22.6262C54.7102 22.9331 54.1991 23.2339 53.8959 23.5271C53.5785 23.8325 53.2503 24.3524 52.9236 24.357C52.6047 24.36 52.2796 23.8279 51.9592 23.5301C51.3824 22.9935 50.9291 22.9346 50.2288 23.3427C49.2878 23.8914 48.2827 24.2844 47.2198 24.5504C46.3773 24.7605 46.1241 25.078 46.1053 25.9033C46.0959 26.3174 46.2538 26.8752 46.0365 27.1065C45.7771 27.3816 45.1893 27.1911 44.7454 27.1926C44.3202 27.1941 43.7419 27.3755 43.5105 27.117C43.2948 26.8767 43.4355 26.3325 43.4246 25.9229C43.4043 25.0855 43.1573 24.759 42.3304 24.5535C41.2472 24.2844 40.2296 23.8748 39.2714 23.317C38.6133 22.9346 38.1475 23.0056 37.5864 23.5105C37.2519 23.8113 36.9783 24.3827 36.5813 24.3509C36.2343 24.3222 35.9201 23.8173 35.6106 23.5045C35.3167 23.2082 34.7821 22.9573 34.8009 22.6051C34.8165 22.3073 35.3167 22.0352 35.6043 21.7526C36.2436 21.1238 36.303 20.7021 35.8294 19.9448C35.2808 19.0666 34.8884 18.1309 34.6258 17.1394C34.4023 16.2914 34.074 16.0495 33.1893 16.0299C32.7657 16.0208 32.178 16.1569 31.9639 15.9437C31.7435 15.7246 31.8701 15.1623 31.8779 14.7511C31.8857 14.3218 31.6825 13.7535 31.9701 13.5026C32.2108 13.294 32.7876 13.4482 33.2159 13.4376C34.0694 13.4179 34.3945 13.1746 34.6118 12.3553C34.8853 11.3275 35.2964 10.3571 35.8622 9.44713C36.2874 8.76391 36.2139 8.32254 35.6215 7.73304C35.3261 7.43829 34.804 7.13145 34.8103 6.83972C34.8181 6.53288 35.3292 6.23208 35.6309 5.93884C35.9482 5.63351 36.2749 5.11354 36.6032 5.10901C36.9205 5.10447 37.2472 5.63653 37.5676 5.93582C38.1225 6.45428 38.5993 6.52683 39.2479 6.14592C40.2218 5.57456 41.2597 5.16191 42.3601 4.88832C43.1213 4.69938 43.3918 4.36382 43.4199 3.60956C43.4355 3.17877 43.273 2.59078 43.4996 2.358C43.7732 2.07837 44.3843 2.27638 44.8486 2.27184C46.0897 2.25975 46.0897 2.26731 46.1006 3.44178C46.1084 4.39102 46.3351 4.67973 47.2776 4.91704C48.3218 5.18005 49.305 5.57305 50.2272 6.11418C50.94 6.53288 51.3902 6.46486 52.0014 5.89198C52.3062 5.6063 52.625 5.10296 52.9252 5.11052C53.244 5.11959 53.5504 5.61537 53.8583 5.90408C54.11 6.13988 54.3585 6.38172 54.6039 6.62508C54.6712 6.69159 54.7274 6.76868 54.7993 6.85181C54.7024 6.95157 54.6118 7.04529 54.518 7.139C53.4113 8.24092 52.8986 8.25754 54.0412 10.1016C54.4836 10.8151 54.7259 11.6162 54.9431 12.4203C55.1417 13.1504 55.4887 13.4149 56.2702 13.4406C56.7141 13.4557 57.3253 13.3031 57.5598 13.5238C57.8443 13.7913 57.6426 14.3808 57.6458 14.8297C57.6567 16.0238 57.6489 16.0238 56.4297 16.0329L56.4375 16.0284Z" fill="#F0DE00"/>
<path id="Vector_2" d="M27.0402 23.2189C26.8839 23.1282 26.6901 23.0828 26.6557 22.8395C26.5307 21.9552 26.6495 21.7043 27.4795 21.2357C27.5295 21.207 27.5811 21.1813 27.6311 21.1511C28.397 20.6976 28.5611 20.1399 28.1266 19.3886C27.6608 18.583 27.1528 17.8 26.7057 16.9868C25.8867 15.4979 25.3896 15.2364 23.8406 16.2265C23.7093 16.3096 23.592 16.429 23.3747 16.3444C22.5228 16.0149 22.3384 15.7715 22.3337 14.8601C22.3337 14.8041 22.3337 14.7467 22.3337 14.6908C22.3056 13.7929 21.8788 13.3803 20.9566 13.3757C20 13.3712 19.0418 13.406 18.0883 13.3682C16.4252 13.3017 15.9218 13.6055 16.0328 15.3286C16.0438 15.5055 16.0875 15.6929 15.8937 15.8441C15.2044 16.3822 14.8511 16.4154 14.0539 15.9756C14.0039 15.9484 13.9554 15.9166 13.9039 15.8894C13.0848 15.4496 12.5143 15.5901 12.0391 16.3641C11.5529 17.1576 11.1059 17.9754 10.5979 18.7553C9.73192 20.084 9.64125 20.6719 11.3357 21.4957C11.4935 21.5728 11.6811 21.6197 11.7108 21.8721C11.8234 22.8077 11.7452 22.9801 10.8761 23.4683C10.8089 23.5061 10.7417 23.5439 10.6745 23.5832C9.96638 24.0079 9.79444 24.5672 10.1993 25.2655C10.8183 26.3327 11.4513 27.3938 12.0969 28.4458C12.4752 29.0625 13.0989 29.2182 13.7569 28.8932C14.0336 28.7557 14.2978 28.5939 14.5697 28.4488C14.6838 28.3884 14.7808 28.3007 14.9449 28.343C15.6233 28.5199 16.0344 29.0353 16.0359 29.7351C16.0359 29.8107 16.0359 29.8863 16.0359 29.9619C16.0438 30.9383 16.4377 31.3207 17.4615 31.3298C18.3587 31.3374 19.2575 31.3056 20.1547 31.3374C21.8288 31.3948 22.4463 31.227 22.34 29.3149C22.3087 28.7617 23.3638 28.2221 23.8718 28.4896C24.2939 28.7118 24.6706 29.0428 25.1895 29.0534C25.6913 29.0595 26.0352 28.8237 26.2774 28.414C26.7714 27.5812 27.2731 26.7529 27.7686 25.92C28.7018 24.3571 28.6456 24.1576 27.0387 23.2234L27.0402 23.2189ZM25.3177 25.4953C25.2677 25.5512 25.238 25.6237 25.1989 25.6887C24.9321 26.1341 24.5601 26.2324 24.0828 25.9835C23.8734 25.8731 23.6577 25.7961 23.3622 25.7915C23.0637 25.7779 22.7808 25.9291 22.5213 26.1437C22.0586 26.5292 21.5365 26.8133 20.9676 27.028C20.1844 27.3212 19.95 27.5872 20.0078 28.3808C20.0531 28.9975 19.8093 29.1471 19.2544 29.0595C19.2169 29.0534 19.1747 29.0534 19.1372 29.0595C18.5635 29.1547 18.2946 28.9915 18.3681 28.3627C18.4447 27.7006 18.0946 27.2547 17.4318 27.037C16.8941 26.8602 16.4064 26.5851 15.9593 26.2435C15.2169 25.6736 14.8636 25.6253 14.0664 26.115C13.6725 26.3568 13.4974 26.31 13.2802 25.917C12.8159 25.0766 12.7925 25.0871 13.5678 24.5778C14.0352 24.2694 14.2243 23.8568 14.1164 23.3111C13.9976 22.7125 14.0055 22.1079 14.0914 21.5063C14.2071 20.7022 14.0789 20.3636 13.3193 19.9902C12.8534 19.762 12.7128 19.5474 13.0785 19.1438C13.116 19.103 13.1348 19.044 13.1629 18.9956C13.5584 18.3306 13.5678 18.317 14.2337 18.6933C14.8198 19.0259 15.3404 18.9715 15.8437 18.5512C16.3048 18.1658 16.83 17.8862 17.3974 17.67C18.1696 17.3768 18.415 17.0684 18.3665 16.2537C18.3353 15.7216 18.5213 15.5493 19.034 15.6355C19.0527 15.6385 19.0731 15.6355 19.0918 15.6355C19.9422 15.6355 19.95 15.6355 19.989 16.4804C20.0141 17.0291 20.2579 17.4161 20.8003 17.6035C21.4693 17.8348 22.068 18.1734 22.6088 18.6162C23.1356 19.0485 23.6905 18.9911 24.2188 18.6223C24.6299 18.3351 24.9254 18.3291 25.1004 18.8475C25.1176 18.9004 25.1614 18.9427 25.1911 18.9926C25.5881 19.6562 25.5959 19.6713 24.9191 20.0386C24.3751 20.3349 24.1469 20.7551 24.2391 21.3491C24.3329 21.9477 24.3908 22.5493 24.2579 23.1509C24.0906 23.9097 24.3798 24.4463 25.1067 24.7501C25.5209 24.9239 25.6225 25.1431 25.313 25.4907L25.3177 25.4953Z" fill="#F0DE00"/>
<path id="Vector_3" d="M50.5715 37.9745C49.9447 37.9896 49.4414 38.4945 49.4414 39.1082C49.4414 39.7309 49.9307 40.2206 50.5684 40.2358C51.2155 40.2509 51.7736 39.7309 51.7751 39.1112C51.7751 38.4975 51.2062 37.9579 50.5715 37.9745Z" fill="#F0DE00"/>
<path id="Vector_4" d="M15.9034 32.5269C15.2531 32.542 14.7357 33.0817 14.767 33.712C14.7967 34.3181 15.3328 34.8033 15.9596 34.7867C16.5817 34.7716 17.1023 34.2576 17.1038 33.6576C17.1038 33.0348 16.5489 32.5118 15.9049 32.5269H15.9034Z" fill="#F0DE00"/>
<path id="Vector_5" d="M28.1809 41.3664C27.5541 41.3936 27.0571 41.909 27.0696 42.5182C27.0821 43.1273 27.6026 43.6231 28.2294 43.6261C28.8734 43.6292 29.4205 43.0911 29.4064 42.4713C29.3923 41.8486 28.8249 41.3377 28.1809 41.3664Z" fill="#F0DE00"/>
<path id="Vector_6" d="M44.8179 7.70589C40.796 7.68775 37.5041 10.8469 37.501 14.724C37.4979 18.5814 40.7601 21.7496 44.7429 21.7572C48.7351 21.7647 52.0176 18.6162 52.0301 14.7663C52.0426 10.9013 48.796 7.72252 44.8163 7.70589H44.8179ZM44.7225 19.4899C42.0277 19.4732 39.8347 17.3208 39.8456 14.7028C39.8566 12.0939 42.0746 9.96715 44.7788 9.9732C47.4814 9.97925 49.6854 12.1151 49.6854 14.73C49.6854 17.3646 47.4517 19.5065 44.721 19.4899H44.7225Z" fill="#F0DE00"/>
<path id="Vector_7" d="M19.1651 21.2115C18.5164 21.2206 18.0037 21.7511 18.024 22.392C18.0428 23.0117 18.5477 23.4773 19.1948 23.4697C19.8263 23.4637 20.3452 22.9664 20.3546 22.3633C20.364 21.7526 19.7966 21.2039 19.1651 21.2115Z" fill="#F0DE00"/>
</g>
<defs>
<clipPath id="clip0_2104_491">
<rect width="60" height="58.022" fill="white"/>
</clipPath>
</defs>
</svg>
