<svg width="24" height="20" viewBox="0 0 24 20" fill="none" xmlns="http://www.w3.org/2000/svg">
<g id="Layer_1" clip-path="url(#clip0_2066_783)">
<path id="Vector" d="M12.0091 0.891272C15.163 0.891272 18.317 0.891272 21.471 0.891272C22.7305 0.891272 23.7184 1.70098 23.956 2.9159C23.9884 3.11597 24.0016 3.31867 23.9956 3.52124C23.9989 5.20573 23.9989 6.88998 23.9956 8.57399C23.9956 8.73805 24.0324 8.91838 23.8153 8.99193C23.7237 9.02669 23.6236 9.03174 23.529 9.00635C23.4344 8.98096 23.3503 8.92643 23.2884 8.85049C22.6166 8.13483 21.7958 7.57548 20.8841 7.21197C17.2704 5.75449 13.0118 7.64759 11.8803 11.2676C11.2312 13.3417 11.5494 15.3218 12.7077 17.1654C12.7919 17.2998 12.9666 17.4299 12.8555 17.6081C12.7565 17.7679 12.5635 17.6908 12.4136 17.6908C9.15349 17.6946 5.89343 17.6946 2.63337 17.6908C1.38167 17.6908 0.43689 17.024 0.105934 15.9173C0.046875 15.7324 0.0149555 15.5399 0.0111729 15.3459C0.0104657 14.6104 0.00410117 13.8672 0.0118801 13.1253C0.0161231 12.7116 0.0726969 12.6303 0.472956 12.5405C2.92189 12.0016 3.72595 8.83706 2.09167 6.99417C1.69921 6.5479 1.18189 6.22962 0.606612 6.0805C0.0267307 5.92704 0.0111729 5.90795 0.00692986 5.30544C-0.000141859 4.65343 -0.00721358 4.00283 0.0083442 3.34799C0.0415813 1.93223 1.0988 0.896929 2.52022 0.891272C5.68363 0.8875 8.84658 0.8875 12.0091 0.891272Z" fill="#121212"/>
<path id="Vector_2" d="M18.5853 18.8909C17.6115 18.8945 16.8987 18.7495 16.217 18.461C16.1583 18.4332 16.0941 18.4188 16.0292 18.4188C15.9643 18.4188 15.9001 18.4332 15.8414 18.461C15.3804 18.659 14.9151 18.8464 14.4504 19.0352C14.2659 19.1101 14.0721 19.1639 13.9038 19.009C13.7355 18.8541 13.7419 18.6455 13.809 18.4433C13.9321 18.0763 14.0509 17.7078 14.1973 17.3507C14.2715 17.1711 14.2503 17.0558 14.1223 16.9108C12.6054 15.1804 12.5291 11.7987 14.2008 10.0032C15.7566 8.33214 17.6709 7.76145 19.8525 8.37669C21.9641 8.97425 23.2774 10.4275 23.638 12.5936C24.2059 16.0085 21.6735 18.9044 18.5853 18.8909Z" fill="#121212"/>
<path id="Vector_3" d="M5.48276 9.28257C5.48276 8.85191 5.48771 8.42053 5.48276 7.98916C5.47922 7.74518 5.59096 7.63557 5.83281 7.63557C6.26489 7.63557 6.69697 7.63557 7.12835 7.63557C7.36879 7.63557 7.48618 7.74306 7.48193 7.98916C7.48193 8.86039 7.48193 9.73257 7.48193 10.6057C7.48193 10.844 7.37798 10.9635 7.12835 10.9593C6.69627 10.9536 6.26418 10.9543 5.8321 10.9593C5.58954 10.9593 5.47852 10.8539 5.47852 10.6106C5.48559 10.1623 5.48276 9.72244 5.48276 9.28257Z" fill="#F0DE00"/>
<path id="Vector_4" d="M5.48242 4.08981C5.48242 3.66551 5.48242 3.24545 5.48242 2.82327C5.48242 2.50504 5.55314 2.43079 5.86359 2.42937C6.28789 2.42937 6.71219 2.43503 7.13225 2.42937C7.3833 2.42442 7.48584 2.54394 7.48584 2.78296C7.48584 3.6542 7.48584 4.52496 7.48584 5.39525C7.48584 5.63993 7.36916 5.74389 7.1273 5.74106C6.69522 5.7354 6.26385 5.73611 5.83176 5.74106C5.58708 5.74106 5.47818 5.63145 5.48313 5.38747C5.48737 4.95186 5.48242 4.52119 5.48242 4.08981Z" fill="#F0DE00"/>
<path id="Vector_5" d="M5.48242 14.4973C5.48242 14.0652 5.48242 13.6331 5.48242 13.201C5.48242 12.9592 5.58425 12.8474 5.83601 12.8474C6.2688 12.854 6.70159 12.854 7.13438 12.8474C7.3833 12.8425 7.48796 12.9585 7.48796 13.201C7.48796 14.0737 7.48796 14.9458 7.48796 15.8176C7.48796 16.0453 7.38401 16.1577 7.14852 16.1549C6.70724 16.1502 6.26573 16.1502 5.82399 16.1549C5.59133 16.1549 5.48384 16.0516 5.48596 15.8197C5.48525 15.3784 5.48242 14.9378 5.48242 14.4973Z" fill="#F0DE00"/>
<path id="Vector_6" d="M17.7286 14.1451C17.7024 13.6939 17.9103 13.3672 18.2695 13.1218C18.452 12.9988 18.6557 12.9097 18.8353 12.7795C19.2391 12.491 19.4046 12.0844 19.2773 11.74C19.1358 11.3652 18.6868 11.0993 18.2271 11.1283C17.6833 11.1629 17.0667 11.4861 17.0829 12.2598C17.0907 12.6013 16.8672 12.8064 16.5624 12.7972C16.2576 12.788 16.0752 12.5787 16.0752 12.2315C16.0752 11.1361 16.8941 10.2613 18.044 10.11C18.9633 9.98762 19.7171 10.2691 20.2638 11.0293C20.9207 11.9408 20.5396 13.2215 19.6273 13.5808C19.5375 13.6161 19.4576 13.6755 19.3671 13.7095C19.0022 13.8452 18.7922 14.0631 18.8049 14.4923C18.8105 14.7893 18.5984 14.964 18.3155 14.9711C18.182 14.9812 18.0498 14.9391 17.9467 14.8536C17.8437 14.7681 17.7779 14.6459 17.7632 14.5128C17.7455 14.3912 17.7406 14.2674 17.7286 14.1451Z" fill="#F0DE00"/>
<path id="Vector_7" d="M18.3064 17.0332C18.1284 17.0299 17.9587 16.9571 17.8336 16.8304C17.7084 16.7037 17.6378 16.5331 17.6367 16.355C17.644 16.1792 17.7194 16.0132 17.847 15.8921C17.9747 15.771 18.1444 15.7043 18.3203 15.7063C18.4962 15.7082 18.6645 15.7786 18.7894 15.9024C18.9143 16.0263 18.9861 16.194 18.9895 16.3699C18.9851 16.5478 18.9111 16.7169 18.7834 16.841C18.6557 16.965 18.4844 17.034 18.3064 17.0332Z" fill="#F0DE00"/>
</g>
<defs>
<clipPath id="clip0_2066_783">
<rect width="24" height="18.2175" fill="white" transform="translate(0 0.891273)"/>
</clipPath>
</defs>
</svg>
