<svg width="55" height="48" viewBox="0 0 55 48" fill="none" xmlns="http://www.w3.org/2000/svg">
<g id="rack and stack 1/1" clip-path="url(#clip0_2066_343)">
<path id="Vector" d="M53.5547 38.8495C51.007 38.8519 48.4578 38.8354 45.9101 38.8636C45.3246 38.8695 45.1835 38.765 45.1851 38.3117C45.2035 25.7239 45.1973 13.1362 45.2096 0.547243C45.2096 0.15149 45.136 0 44.5397 0.00117434C32.9203 0.0164408 21.3009 0.0164408 9.68146 0C9.08516 0 9.01158 0.150316 9.01158 0.546068C9.02384 13.1491 9.01924 25.7533 9.03457 38.3563C9.03457 38.7709 8.90274 38.866 8.37082 38.8601C5.80321 38.8366 3.23406 38.8507 0.66491 38.8484C0.387454 38.8484 0.160584 38.8237 0.162117 39.1455C0.183578 42.0966 0.186644 45.0477 0.194308 47.9988H54.0253C54.033 45.0477 54.0361 42.0966 54.0575 39.1455C54.0606 38.8237 53.8322 38.8484 53.5547 38.8484V38.8495ZM10.8572 20.1294C10.8572 14.0698 10.8618 8.01018 10.8465 1.95175C10.8465 1.55365 10.9231 1.40569 11.5179 1.40686C21.914 1.4233 32.3087 1.42213 42.7048 1.41038C43.2168 1.41038 43.3793 1.47615 43.3793 1.90713C43.3609 14.0569 43.3609 26.2066 43.3793 38.3563C43.3793 38.7814 43.2275 38.8613 42.7048 38.8613C32.3087 38.8495 21.914 38.8495 11.5179 38.8613C10.9921 38.8613 10.8434 38.7779 10.8449 38.3551C10.8664 32.2803 10.8587 26.2054 10.8587 20.1305L10.8572 20.1294ZM51.6233 46.6014C43.4314 46.5908 35.238 46.5931 27.0462 46.5931C18.8544 46.5931 10.7836 46.5884 2.65155 46.6037C2.11197 46.6037 1.98781 46.5062 1.99547 46.0987C2.02766 44.2879 2.02 42.4759 2.00007 40.6651C1.997 40.3398 2.10891 40.2494 2.53965 40.2494C18.9249 40.2576 35.3101 40.2576 51.6953 40.2494C52.1399 40.2494 52.2272 40.3586 52.2242 40.6721C52.2058 42.4982 52.1996 44.3255 52.2288 46.1528C52.2349 46.5309 52.0862 46.6025 51.6248 46.6014H51.6233Z" fill="#F0DE00"/>
<path id="Vector_2" d="M13.7882 10.6113C18.2306 10.5937 22.6729 10.6008 27.1153 10.6008C31.5576 10.6008 36 10.5961 40.4424 10.6066C40.8808 10.6066 41.0663 10.5644 41.0617 10.1663C41.0325 7.88686 41.0387 5.60747 41.0571 3.32807C41.0601 3.0063 40.9666 2.91235 40.5282 2.91235C31.5822 2.92292 22.6361 2.92292 13.6886 2.91235C13.2425 2.91235 13.1628 3.01804 13.1643 3.33277C13.1812 5.5969 13.1873 7.86102 13.1613 10.124C13.1567 10.5103 13.2732 10.6113 13.7867 10.609L13.7882 10.6113ZM15.0007 4.68208C14.9961 4.38615 15.1096 4.32156 15.479 4.32274C23.2416 4.33096 31.0058 4.33213 38.7684 4.32156C39.1793 4.32156 39.2222 4.43782 39.2191 4.70087C39.2053 6.05841 39.193 7.41712 39.2252 8.77466C39.2329 9.13284 39.1011 9.20682 38.6535 9.20447C34.8028 9.19038 30.9522 9.19625 27.1 9.19625C23.2478 9.19625 19.4385 9.19038 15.6078 9.2033C15.154 9.20447 14.9854 9.1434 14.9961 8.75587C15.0314 7.39833 15.0222 6.03962 15.0007 4.68208Z" fill="#F0DE00"/>
<path id="Vector_3" d="M41.0594 15.9053C41.0625 15.5589 40.9582 15.4684 40.4968 15.4696C31.5707 15.4814 22.6446 15.4814 13.7185 15.4696C13.2387 15.4696 13.1621 15.58 13.1651 15.9135C13.1851 18.1776 13.1866 20.4418 13.1651 22.7047C13.1621 23.0664 13.2724 23.1686 13.7599 23.1674C18.2023 23.1522 22.6446 23.158 27.087 23.158C31.5293 23.158 35.9717 23.1522 40.414 23.1662C40.8954 23.1674 41.0686 23.1099 41.0625 22.6977C41.0318 20.4336 41.0364 18.1694 41.0594 15.9065V15.9053ZM38.7033 21.757C34.8327 21.7476 30.9606 21.7512 27.0885 21.7512C23.2578 21.7512 19.427 21.7441 15.5963 21.7606C15.115 21.7629 14.9893 21.6678 14.9985 21.3002C15.0291 19.9579 15.0199 18.6157 15.0031 17.2734C14.9985 16.9845 15.0675 16.8753 15.4921 16.8765C23.2348 16.887 30.9775 16.887 38.7202 16.8765C39.1187 16.8765 39.2291 16.954 39.223 17.2617C39.2 18.6356 39.1985 20.0096 39.223 21.3824C39.2291 21.7101 39.0774 21.757 38.7018 21.7559L38.7033 21.757Z" fill="#F0DE00"/>
<path id="Vector_4" d="M41.0598 28.4872C41.0629 28.1326 40.9678 28.021 40.4727 28.0234C36.0304 28.0398 31.5895 28.0327 27.1472 28.0327C22.7048 28.0327 18.1812 28.0374 13.699 28.0245C13.2667 28.0234 13.164 28.1091 13.1671 28.4367C13.187 30.7161 13.187 32.9955 13.1671 35.2737C13.164 35.6108 13.2468 35.72 13.725 35.72C22.6496 35.7071 31.5742 35.7082 40.4988 35.72C40.9694 35.72 41.0644 35.619 41.0598 35.2773C41.0399 33.0143 41.0384 30.7502 41.0598 28.4872ZM38.5734 34.3131C34.7442 34.299 30.9135 34.3049 27.0843 34.3049C23.2551 34.3049 19.4244 34.2967 15.5952 34.3143C15.1001 34.3166 14.9943 34.2063 15.002 33.8481C15.0296 32.5058 15.025 31.1635 15.0035 29.8213C14.9989 29.5218 15.0939 29.4314 15.5017 29.4314C23.2429 29.4408 30.984 29.4408 38.7252 29.4314C39.1299 29.4314 39.2295 29.5159 39.2249 29.8189C39.2035 31.1612 39.1897 32.5035 39.2311 33.8457C39.2433 34.265 39.0502 34.3143 38.5765 34.3131H38.5734Z" fill="#F0DE00"/>
<path id="Vector_5" d="M11.9822 44.2433C10.2102 44.2609 8.43817 44.2574 6.66613 44.2468C6.14341 44.2433 5.44901 44.4253 5.14856 44.1658C4.89256 43.9462 5.07038 43.4247 5.06885 43.0372C5.06425 41.9228 5.06885 41.9322 3.62485 41.9615C3.29221 41.9686 3.22323 42.0508 3.2263 42.2845C3.24009 43.2991 3.24469 44.3137 3.22476 45.3272C3.22016 45.5938 3.31827 45.6666 3.66317 45.6619C5.04739 45.6478 6.43313 45.656 7.81888 45.656H11.1192C12.462 45.656 12.4467 45.656 12.4498 44.605C12.4498 44.3219 12.3716 44.2374 11.9838 44.2421L11.9822 44.2433Z" fill="#F0DE00"/>
<path id="Vector_6" d="M50.5299 41.1888C49.8171 41.2029 49.1043 41.1935 48.393 41.1935C47.9654 41.1935 47.5377 41.1935 47.11 41.1935C45.6844 41.1935 45.6967 41.1935 45.7503 42.2892C45.7626 42.5382 45.8622 42.6098 46.1765 42.6051C47.0104 42.5922 47.8458 42.6145 48.6797 42.5945C49.0522 42.5851 49.2131 42.6638 49.1564 42.9574C49.1365 43.0643 49.1534 43.1758 49.1534 43.285C49.1534 44.4265 49.1534 44.4206 50.6525 44.3537C50.9162 44.3419 50.999 44.2915 50.9959 44.0883C50.9821 43.231 50.9745 42.3726 50.999 41.5153C51.0066 41.2264 50.8503 41.1841 50.5299 41.19V41.1888Z" fill="#F0DE00"/>
<path id="Vector_7" d="M41.6807 41.1935C41.6194 41.1935 41.5566 41.2006 41.4983 41.1935C40.9296 41.116 40.7196 41.2616 40.7487 41.7337C40.8024 42.6004 40.7641 42.6015 41.9122 42.6015C42.1161 42.6015 42.3215 42.5875 42.5223 42.6051C42.8963 42.6379 43.0481 42.564 43.045 42.2351C43.0343 41.1947 43.0557 41.1935 41.6807 41.1935Z" fill="#F0DE00"/>
<path id="Vector_8" d="M15.6671 44.2504C15.0049 44.2504 14.6738 44.4845 14.6738 44.9526C14.6738 45.4208 15.0244 45.6557 15.7254 45.6572C16.3999 45.6572 16.7371 45.431 16.7371 44.9785C16.7371 44.4931 16.3805 44.2504 15.6671 44.2504Z" fill="#F0DE00"/>
<path id="Vector_9" d="M21.811 7.47706C24.3541 7.4618 26.8987 7.47002 29.4433 7.47002C30.7861 7.47002 30.7632 7.47002 30.7815 6.45539C30.7877 6.10426 30.6191 6.05259 30.2205 6.05728C28.8164 6.07373 27.4122 6.06316 26.0081 6.06316H22.4671C21.1963 6.06316 21.2254 6.06316 21.1902 7.02729C21.1764 7.42069 21.3619 7.48059 21.8125 7.47824L21.811 7.47706Z" fill="#F0DE00"/>
<path id="Vector_10" d="M33.2893 7.47114C34.4436 7.45822 34.278 7.58153 34.2872 6.85931C34.298 6.06076 34.2903 6.05724 33.1069 6.06193C32.1749 6.06546 32.2945 5.97503 32.2899 6.67259C32.2837 7.47114 32.2899 7.47114 33.2893 7.47114Z" fill="#F0DE00"/>
<path id="Vector_11" d="M30.2868 18.6051C28.8627 18.618 27.4371 18.611 26.0131 18.611C24.8327 18.611 23.6524 18.611 22.472 18.611C21.1844 18.611 21.2043 18.611 21.1905 19.6233C21.1859 19.9638 21.3331 20.0272 21.7424 20.0261C24.3069 20.012 26.8715 20.019 29.4345 20.019C30.8034 20.019 30.785 20.019 30.7789 18.9645C30.7773 18.6615 30.644 18.6028 30.2868 18.6063V18.6051Z" fill="#F0DE00"/>
<path id="Vector_12" d="M33.3406 18.6086C32.6396 18.6086 32.2891 18.8302 32.2891 19.2733C32.2891 20.0178 32.2891 20.0225 33.4203 20.0166C34.4305 20.0108 34.2803 20.1211 34.288 19.352C34.2956 18.6074 34.2895 18.6074 33.3406 18.6074V18.6086Z" fill="#F0DE00"/>
<path id="Vector_13" d="M30.2344 31.1494C27.6699 31.1647 25.1038 31.1565 22.5392 31.1565C21.1719 31.1565 21.1887 31.1565 21.1918 32.2122C21.1918 32.5093 21.3068 32.5739 21.6731 32.5692C23.0972 32.5528 24.5228 32.5621 25.9484 32.5621H29.491C30.7832 32.5621 30.7648 32.5621 30.7786 31.5616C30.7832 31.2304 30.659 31.1459 30.2344 31.1482V31.1494Z" fill="#F0DE00"/>
<path id="Vector_14" d="M33.2065 31.1564C32.1488 31.1623 32.299 31.0449 32.2898 31.7835C32.2806 32.5645 32.2882 32.5645 33.3092 32.5645C34.3301 32.5645 34.2887 32.5645 34.2887 31.8916C34.2887 31.1553 34.2887 31.1494 33.2065 31.1564Z" fill="#F0DE00"/>
</g>
<defs>
<clipPath id="clip0_2066_343">
<rect width="53.8923" height="48" fill="white" transform="translate(0.165039)"/>
</clipPath>
</defs>
</svg>
