<svg width="66" height="66" viewBox="0 0 66 66" fill="none" xmlns="http://www.w3.org/2000/svg">
<g id="remote hand1/1" clip-path="url(#clip0_2099_285)">
<path id="Vector" d="M27.6775 46.0538C27.6775 45.7646 27.6775 45.5516 27.6775 45.3387C27.6775 39.818 27.6739 34.299 27.681 28.7783C27.6828 27.3977 28.4585 26.2691 29.6974 25.774C30.9151 25.2877 32.2712 25.5788 33.1764 26.5335C33.7835 27.1741 34.0675 27.9425 34.0657 28.8245C34.0604 30.9504 34.0657 33.0781 34.0657 35.2626C34.6337 35.1792 35.168 35.0443 35.7111 35.1632C36.801 35.4046 37.6157 36.0079 38.0364 37.0461C38.1819 37.4063 38.331 37.4312 38.6612 37.3548C40.1504 37.007 41.6095 37.6902 42.2449 39.0691C42.4224 39.4559 42.552 39.5766 43.0029 39.4666C44.8098 39.0247 46.7534 40.3397 46.7943 42.2119C46.8741 45.7983 47.0108 49.3971 46.7091 52.9764C46.4854 55.6401 45.1613 57.7909 43.0614 59.4377C42.6834 59.734 42.5644 60.0233 42.5715 60.4829C42.5999 62.1457 42.5715 63.8084 42.5911 65.4712C42.5964 65.8581 42.5307 65.9965 42.0958 65.9965C40.454 65.9965 40.454 66.016 40.454 64.3639C40.454 62.7455 40.4699 61.1271 40.4468 59.5086C40.438 58.9142 40.6599 58.5113 41.1533 58.1866C43.5442 56.6125 44.6944 54.3659 44.6998 51.5195C44.7069 48.6145 44.7033 45.7113 44.7157 42.8063C44.7175 42.3325 44.6181 41.9226 44.1921 41.6617C43.5087 41.2412 42.6496 41.6919 42.5928 42.5224C42.5538 43.0956 42.568 43.6759 42.5875 44.2508C42.5982 44.5738 42.536 44.7016 42.1633 44.7105C40.4522 44.7513 40.4522 44.7672 40.4522 43.0814C40.4522 42.2828 40.4557 41.4861 40.4522 40.6875C40.4468 39.8534 40.0422 39.3708 39.373 39.3814C38.7073 39.3921 38.3275 39.8694 38.3257 40.7194C38.3222 41.8729 38.3115 43.0246 38.3328 44.1781C38.3399 44.5472 38.2973 44.714 37.8482 44.714C36.1957 44.714 36.1957 44.7371 36.1957 43.0903C36.1957 41.5837 36.1993 40.0753 36.1957 38.5687C36.1939 37.7293 35.7963 37.2484 35.1254 37.2537C34.458 37.259 34.071 37.7382 34.0693 38.5829C34.0657 40.4444 34.0533 42.3077 34.0799 44.1692C34.0852 44.6075 33.9645 44.714 33.5332 44.7122C31.9393 44.7034 31.9393 44.7193 31.9393 43.1009C31.9393 38.4231 31.9393 33.7454 31.9393 29.0676C31.9393 28.7322 31.9481 28.3968 31.728 28.1164C31.444 27.7491 31.0624 27.5894 30.6133 27.7083C30.1696 27.8254 29.8891 28.1342 29.8234 28.5955C29.7915 28.8138 29.8092 29.0374 29.8092 29.2592C29.8092 35.6885 29.8057 42.1178 29.8146 48.5471C29.8146 49.1629 29.7471 49.7148 29.0779 49.9508C28.4318 50.1797 28.0449 49.7822 27.6686 49.3439C27.1059 48.6873 26.5273 48.0449 25.9504 47.4007C25.2812 46.6536 24.3511 46.5329 23.5754 47.0884C22.8264 47.6261 22.5601 48.6766 23.0731 49.4521C24.8286 52.1122 26.5983 54.7634 28.4141 57.3827C28.8809 58.057 29.6246 58.4847 30.3808 58.8201C31.0216 59.104 31.3091 59.5424 31.2932 60.2682C31.2559 61.9966 31.2648 63.7268 31.2932 65.4552C31.3003 65.8953 31.176 66 30.7464 65.9965C29.1543 65.9876 29.1525 66.0036 29.1525 64.4455C29.1525 63.3151 29.1418 62.1847 29.1596 61.0543C29.1649 60.7313 29.0779 60.5432 28.7833 60.3746C27.6721 59.7393 26.7846 58.8822 26.0782 57.7891C24.5783 55.4644 23.0145 53.1823 21.4596 50.8931C20.2792 49.154 20.5597 46.8666 22.1412 45.564C23.7512 44.2366 25.9806 44.3786 27.4787 45.903C27.5159 45.942 27.5674 45.9686 27.6828 46.052L27.6775 46.0538Z" fill="#121212"/>
<path id="Vector_2" d="M36.4583 29.4332C36.4583 28.1714 36.4637 28.1608 37.5997 28.6914C37.857 28.8121 37.9795 28.7908 38.1073 28.5352C38.2546 28.2389 38.4463 27.9656 38.6185 27.6817C38.8244 27.3409 39.1581 27.0162 39.2025 26.656C39.254 26.2514 38.6735 26.2407 38.4357 25.9639C38.0541 25.5202 37.834 25.034 37.8819 24.4519C37.9387 23.7652 37.9334 23.082 37.8854 22.3934C37.8269 21.5612 38.1872 20.9223 38.9167 20.5354C39.2646 20.3509 39.3019 20.1947 39.08 19.8948C38.8972 19.6464 38.7552 19.3678 38.5937 19.1034C38.386 18.7644 38.2458 18.3226 37.9458 18.1202C37.6298 17.9091 37.3103 18.3687 36.9518 18.4397C36.3323 18.5621 35.7625 18.4823 35.2389 18.1256C34.7259 17.776 34.1917 17.469 33.6201 17.2223C32.7912 16.8656 32.3084 16.2463 32.3261 15.3235C32.3332 14.9544 32.1948 14.8816 31.8682 14.8905C31.2043 14.91 30.5369 14.9065 29.8731 14.8905C29.566 14.8834 29.3956 14.9171 29.4045 15.3075C29.4258 16.2587 28.9146 16.8851 28.0626 17.2454C27.5496 17.4619 27.0703 17.7298 26.6159 18.0493C25.8562 18.5816 25.0486 18.6739 24.2481 18.193C23.8647 17.9623 23.7156 18.0794 23.5523 18.4113C23.4262 18.6686 23.2612 18.9064 23.1121 19.1531C22.9062 19.4938 22.5707 19.8203 22.5316 20.1805C22.489 20.5763 23.0677 20.594 23.3073 20.8726C23.7085 21.3376 23.8824 21.8469 23.8522 22.4555C23.8238 23.0518 23.8008 23.6534 23.8451 24.2479C23.9126 25.16 23.6037 25.8592 22.8032 26.3028C22.5103 26.4661 22.4234 26.5885 22.631 26.8955C22.9772 27.4084 23.2949 27.9425 23.5931 28.4838C23.7582 28.7837 23.8984 28.8032 24.2037 28.6488C25.2527 28.1147 25.2847 28.143 25.2776 29.3125C25.274 29.9247 25.4657 30.5937 24.5818 30.8617C23.7404 31.1172 22.805 30.993 22.2796 30.3027C21.543 29.3356 20.9199 28.2815 20.3857 27.1919C19.9526 26.3081 20.3147 25.2824 21.2039 24.7909C21.6353 24.5531 21.7613 24.2887 21.685 23.8504C21.669 23.7634 21.6708 23.6729 21.6779 23.5842C21.7382 22.8495 21.7382 22.2461 20.9093 21.7794C20.0946 21.3198 20.0129 20.216 20.5152 19.3412C20.9998 18.4982 21.5004 17.6624 22.0275 16.8443C22.6914 15.8133 23.7741 15.5258 24.8569 16.1239C25.2243 16.3262 25.4817 16.3634 25.7852 16.0724C25.8953 15.9677 26.032 15.8754 26.174 15.8222C26.9141 15.5436 27.3472 15.1283 27.4289 14.2375C27.5088 13.3679 28.3501 12.793 29.2358 12.7735C30.3221 12.7486 31.4084 12.7468 32.4947 12.7735C33.5491 12.7983 34.3993 13.6022 34.4295 14.6687C34.4419 15.1585 34.6177 15.3892 35.0366 15.524C35.12 15.5507 35.1999 15.5933 35.2726 15.6429C35.9507 16.1114 36.5702 16.422 37.4559 15.9216C38.1481 15.5294 39.135 15.9606 39.6072 16.674C40.2036 17.5772 40.768 18.5071 41.2846 19.4565C41.7922 20.3882 41.5118 21.4671 40.5852 21.9941C40.1077 22.2657 39.9853 22.5673 40.0598 23.05C40.0864 23.2239 40.0935 23.4085 40.0634 23.5806C39.9551 24.184 40.1361 24.5673 40.7006 24.9115C41.5455 25.4262 41.7585 26.4909 41.2686 27.3764C40.7556 28.3045 40.2142 29.222 39.6249 30.104C38.9753 31.0782 37.6227 31.2769 36.6802 30.5973C36.2116 30.2583 36.5897 29.7668 36.4583 29.4261V29.4332Z" fill="#121212"/>
<path id="Vector_3" d="M54.8639 10.4469C54.7503 10.5374 54.6545 10.6261 54.548 10.6953C50.8755 13.0342 47.1994 15.3678 43.5323 17.7173C43.2234 17.9143 43.0903 17.8416 42.9306 17.563C42.659 17.0856 42.1105 16.5976 42.1549 16.1646C42.1904 15.8292 42.9483 15.5612 43.3956 15.2755C46.6776 13.1851 49.9667 11.107 53.2362 8.99885C53.6605 8.72557 53.8504 8.73622 54.0758 9.19228C54.2888 9.62528 54.5888 10.0157 54.8639 10.4487V10.4469Z" fill="#121212"/>
<path id="Vector_4" d="M35.2253 25.2612C34.7815 24.7537 34.3342 24.3189 33.7911 24.0137C33.5532 23.8806 33.5284 23.7173 33.5231 23.476C33.4805 21.8221 32.3853 20.7041 30.8428 20.7183C29.3287 20.7325 28.2424 21.8558 28.2247 23.4653C28.2211 23.7492 28.1483 23.9107 27.9087 24.0456C27.3815 24.3402 26.9609 24.7679 26.5597 25.215C25.6225 23.9356 26.0734 21.4405 27.488 20.0191C29.1264 18.3723 31.7445 18.1487 33.6331 19.4938C35.4791 20.8088 36.1856 23.2843 35.2253 25.2594V25.2612Z" fill="#121212"/>
<path id="Vector_5" d="M51.062 31.7738C48.6675 30.2335 46.3156 28.7109 43.9495 27.2096C43.6336 27.0091 43.6567 26.8582 43.8519 26.6044C44.1856 26.1697 44.3507 25.4119 44.8051 25.325C45.1903 25.2522 45.6979 25.797 46.1435 26.0809C48.0214 27.2823 49.8887 28.4997 51.7755 29.6869C52.1376 29.914 52.2033 30.0808 51.9335 30.4322C51.6122 30.8492 51.3566 31.3142 51.0638 31.772L51.062 31.7738Z" fill="#121212"/>
<path id="Vector_6" d="M18.646 28.8669C18.6673 28.9131 18.6975 28.9965 18.7401 29.0728C19.0116 29.5537 19.2814 30.0382 19.5619 30.5137C19.7057 30.7569 19.5228 30.8066 19.3702 30.8917C17.0858 32.1996 14.8013 33.5057 12.5204 34.8189C12.3003 34.9449 12.1548 34.9342 12.0625 34.6822C12.0554 34.6627 12.0376 34.645 12.0252 34.6272C11.404 33.6571 11.5974 32.8852 12.6056 32.3114C14.4499 31.2591 16.2923 30.2032 18.1348 29.1491C18.2697 29.0728 18.4064 28.9983 18.6424 28.8669H18.646Z" fill="#121212"/>
<path id="Vector_7" d="M17.1149 7.14453C17.2356 7.21729 17.3332 7.26875 17.4219 7.33086C19.5093 8.77537 21.5932 10.2252 23.6877 11.6608C23.9415 11.8347 23.9823 11.9465 23.8048 12.2251C22.8694 13.6909 22.8801 13.6963 21.453 12.7096C19.7472 11.5295 18.045 10.3405 16.3285 9.17465C15.9895 8.94395 15.8759 8.77182 16.183 8.424C16.4439 8.12765 16.6409 7.77451 16.8699 7.44976C16.9427 7.34683 17.0297 7.25278 17.1166 7.14631L17.1149 7.14453Z" fill="#121212"/>
<path id="Vector_8" d="M60.6763 2.45496e-05C57.7493 -0.00884833 55.3549 2.3886 55.3584 5.32198C55.3602 8.25712 57.7405 10.6351 60.6799 10.6404C63.582 10.6457 65.9836 8.27487 66.0013 5.38763C66.0191 2.41345 63.6406 0.00889743 60.6763 2.45496e-05ZM60.7012 8.51089C58.9262 8.51089 57.4831 7.07348 57.4884 5.30778C57.4937 3.57224 58.9208 2.14016 60.6586 2.13129C62.4265 2.12242 63.8678 3.55982 63.8695 5.3344C63.8713 7.06461 62.43 8.50911 60.6994 8.51089H60.7012Z" fill="#121212"/>
<path id="Vector_9" d="M5.35012 32.993C2.44088 32.9788 0.0286535 35.3354 0.000253384 38.2173C-0.0281467 41.1968 2.33438 43.6138 5.29509 43.6351C8.22385 43.6546 10.6325 41.2696 10.6432 38.3416C10.6538 35.4029 8.28242 33.0072 5.35012 32.993ZM5.29864 41.5021C3.53784 41.4932 2.11428 40.0345 2.13026 38.2564C2.14623 36.5315 3.60706 35.1047 5.34124 35.1242C7.1127 35.1438 8.53625 36.5989 8.5114 38.3682C8.48655 40.1002 7.03992 41.5127 5.29864 41.5021Z" fill="#121212"/>
<path id="Vector_10" d="M10.6627 6.0212e-05C8.30905 -0.0123618 6.38672 1.89886 6.38672 4.25194C6.38672 6.60858 8.29662 8.51625 10.6556 8.5127C12.9755 8.50915 14.8908 6.6068 14.8996 4.29276C14.9121 1.9308 13.0181 0.0124822 10.6627 6.0212e-05ZM10.6982 6.38321C9.51428 6.40805 8.52915 5.45688 8.5185 4.27679C8.50785 3.12331 9.4415 2.15439 10.5899 2.12955C11.7721 2.10293 12.7554 3.05233 12.7714 4.23597C12.7856 5.38235 11.8431 6.36014 10.6982 6.38321Z" fill="#121212"/>
<path id="Vector_11" d="M57.5419 29.8023C55.1829 29.7757 53.2446 31.6691 53.2286 34.0169C53.2126 36.3771 55.1083 38.3025 57.4602 38.3149C59.7855 38.3273 61.7167 36.441 61.7415 34.1322C61.7682 31.765 59.8902 29.8289 57.5419 29.8023ZM57.4691 36.1837C56.2852 36.1712 55.332 35.1899 55.3586 34.008C55.3835 32.8563 56.3473 31.9229 57.5011 31.9318C58.6832 31.9424 59.6346 32.922 59.6133 34.1056C59.592 35.2502 58.6175 36.1943 57.4709 36.1819L57.4691 36.1837Z" fill="#121212"/>
</g>
<defs>
<clipPath id="clip0_2099_285">
<rect width="66" height="66" fill="white"/>
</clipPath>
</defs>
</svg>
