<svg width="26" height="25" viewBox="0 0 26 25" fill="none" xmlns="http://www.w3.org/2000/svg">
<g id="services" clip-path="url(#clip0_1721_32565)">
<path id="Vector" d="M5.48662 2.66127C5.67125 2.65149 5.80473 2.73878 5.90267 2.86168C6.45654 3.5558 7.01127 4.24991 7.5556 4.94891C7.72895 5.17097 7.65701 5.40071 7.41172 5.51943C7.17682 5.63325 6.92719 5.57739 6.74691 5.35183C6.19651 4.6647 5.64784 3.97687 5.11045 3.28346C4.87382 2.9783 5.06884 2.66057 5.48662 2.66057V2.66127Z" fill="#F0DE00"/>
<path id="Vector_2" d="M25.1995 7.06966C25.2047 7.20444 25.1016 7.31407 24.9395 7.3846C24.0225 7.78543 23.1054 8.18555 22.1841 8.5794C21.9292 8.68833 21.6675 8.63037 21.547 8.46208C21.4109 8.27214 21.4811 8.03821 21.7463 7.9209C22.6599 7.51588 23.577 7.11366 24.5018 6.7254C24.8563 6.57666 25.2091 6.75194 25.2004 7.06966H25.1995Z" fill="#F0DE00"/>
<path id="Vector_3" d="M12.3246 2.59772C12.3246 2.19271 12.3211 1.78699 12.3254 1.38198C12.328 1.11243 12.5205 0.935759 12.7926 0.937854C13.0605 0.939949 13.2555 1.12151 13.2563 1.38826C13.2598 2.19899 13.2607 3.00902 13.2563 3.81975C13.2546 4.09628 13.0683 4.26318 12.7874 4.26038C12.5101 4.25759 12.3272 4.08581 12.3246 3.81347C12.3202 3.40845 12.3237 3.00274 12.3237 2.59772H12.3246Z" fill="#F0DE00"/>
<path id="Vector_4" d="M4.09288 8.26028C4.10415 8.56335 3.73924 8.72675 3.36913 8.57173C2.88114 8.36712 2.40181 8.14786 1.91902 7.93627C1.51164 7.7575 1.10253 7.58293 0.697746 7.40067C0.394377 7.2638 0.311167 7.08643 0.437715 6.88323C0.564264 6.68072 0.842496 6.61368 1.13373 6.73938C2.02737 7.12414 2.91581 7.51868 3.80684 7.90764C3.9828 7.98445 4.08421 8.09688 4.09201 8.26098L4.09288 8.26028Z" fill="#F0DE00"/>
<path id="Vector_5" d="M20.7816 3.1815C20.7859 3.24924 20.7192 3.32675 20.655 3.40426C20.0925 4.08511 19.5317 4.76665 18.9666 5.4461C18.7828 5.66677 18.554 5.71984 18.3286 5.60811C18.0825 5.48591 18.0279 5.26943 18.2142 5.04039C18.7768 4.35046 19.3471 3.66403 19.9183 2.979C20.0457 2.82537 20.2182 2.73319 20.4609 2.80023C20.6646 2.85679 20.7799 2.96922 20.7816 3.1815Z" fill="#F0DE00"/>
<path id="Vector_6" d="M16.0846 23.9023C16.0031 23.4225 15.5845 23.0839 14.9699 23.0776C13.5155 23.0615 12.0611 23.0538 10.6066 23.0804C9.79621 23.095 9.28655 23.7333 9.55351 24.3234C9.70173 24.6502 10.0259 24.8206 10.4081 24.9386H15.1797C15.2118 24.9232 15.2412 24.9037 15.2751 24.8939C15.8315 24.7305 16.1574 24.3324 16.0846 23.903V23.9023ZM14.7931 24.1593C14.1162 24.1593 13.4392 24.1593 12.7614 24.1593C12.133 24.1593 11.5037 24.1593 10.8753 24.1593C10.8077 24.1593 10.7401 24.1593 10.6725 24.1572C10.526 24.1544 10.4211 24.0971 10.4237 23.977C10.4255 23.8555 10.5304 23.8073 10.6803 23.808C11.222 23.8101 11.7638 23.808 12.3055 23.808C13.1376 23.808 13.9688 23.8087 14.8009 23.8073C14.9621 23.8073 15.1424 23.8024 15.1485 23.9728C15.1554 24.16 14.9639 24.1586 14.7931 24.1586V24.1593Z" fill="#F0DE00"/>
<path id="Vector_7" d="M17.0164 21.637C16.9514 21.1538 16.4426 20.8283 15.7318 20.827C13.7937 20.8242 11.8565 20.8263 9.91841 20.8263C9.74332 20.8263 9.5691 20.8374 9.40268 20.8814C8.86355 21.0239 8.54284 21.4498 8.62519 21.9072C8.70406 22.343 9.16345 22.6823 9.72685 22.6872C10.7444 22.697 11.7612 22.69 12.7787 22.69V22.6921C13.7868 22.6921 14.794 22.6977 15.802 22.69C16.5752 22.6844 17.097 22.2236 17.0172 21.637H17.0164ZM15.2256 21.9708C14.4135 21.9708 13.6013 21.9708 12.7891 21.9708C12.0351 21.9708 11.281 21.9708 10.5269 21.9708C10.4454 21.9708 10.3648 21.9708 10.2833 21.9687C10.1074 21.9652 9.98255 21.8968 9.98428 21.7529C9.98688 21.607 10.1126 21.5497 10.292 21.5504C10.9421 21.5532 11.5913 21.5504 12.2413 21.5504C13.239 21.5504 14.2366 21.5511 15.2343 21.5497C15.4276 21.5497 15.6434 21.5441 15.6512 21.748C15.659 21.9722 15.4302 21.9708 15.2256 21.9708Z" fill="#F0DE00"/>
<g id="Group">
<path id="Vector_8" d="M18.2498 7.94952C16.765 6.72679 14.9196 6.11578 12.7995 6.11229C11.04 6.10949 9.44685 6.5599 8.07129 7.45163C6.34729 8.56892 5.35051 10.0242 5.19189 11.8035C5.0168 13.7601 5.83763 15.4346 7.5963 16.8012C7.90661 17.0421 8.16144 17.3138 8.33132 17.635C8.71097 18.3508 8.84618 19.1021 8.83058 19.8745C8.82278 20.2851 8.96406 20.4038 9.47806 20.4045C10.5832 20.4059 11.6892 20.4045 12.7943 20.4045C13.9194 20.4045 15.0436 20.4059 16.1686 20.4045C16.6194 20.4038 16.7762 20.276 16.7884 19.9136C16.7901 19.8514 16.7867 19.7886 16.7884 19.7264C16.8083 18.466 17.2122 17.3661 18.4101 16.4444C19.6184 15.5149 20.2494 14.2929 20.4219 12.9466C20.6698 11.013 19.9313 9.33426 18.2506 7.95092L18.2498 7.94952ZM17.8016 15.876C17.4003 16.2447 16.9366 16.5687 16.6393 17.0065C16.1461 17.7335 15.926 18.5197 15.8843 19.3382C15.8722 19.5805 15.7847 19.6468 15.4848 19.6412C14.5937 19.6238 13.701 19.6349 12.8099 19.6349C11.9189 19.6349 10.9871 19.6238 10.0761 19.6412C9.80136 19.6468 9.73549 19.5665 9.72595 19.3724C9.69302 18.6566 9.51446 17.966 9.15735 17.3075C8.93719 16.9018 8.63989 16.5387 8.23945 16.237C7.03811 15.3341 6.30829 14.2266 6.12366 12.9173C5.8749 11.1512 6.51804 9.59962 8.12243 8.3706C10.2859 6.71283 13.193 6.36507 15.8566 7.45163C17.8805 8.27703 19.081 9.63942 19.4199 11.4501C19.7319 13.1163 19.185 14.6051 17.8008 15.8753L17.8016 15.876Z" fill="#F0DE00"/>
<path id="Vector_9" d="M18.7178 12.2615C18.7178 12.168 18.7308 12.073 18.7161 11.9808C18.4188 10.1673 17.2452 8.865 15.1866 8.09267C14.4594 7.81964 13.681 7.69743 12.8784 7.68836C12.5594 7.68486 12.3445 7.82802 12.3289 8.0424C12.3133 8.26236 12.5248 8.42227 12.8567 8.43973C12.9243 8.44322 12.992 8.44392 13.0596 8.44671C15.4631 8.55705 17.4073 9.99974 17.7505 11.9208C17.7834 12.1072 17.7808 12.2944 17.8068 12.4794C17.8398 12.7161 18.0461 12.8621 18.307 12.8474C18.5557 12.8342 18.7256 12.6763 18.7343 12.448C18.7369 12.3858 18.7343 12.323 18.7343 12.2608H18.717L18.7178 12.2615Z" fill="#F0DE00"/>
</g>
</g>
<defs>
<clipPath id="clip0_1721_32565">
<rect width="24.8182" height="24" fill="white" transform="translate(0.381348 0.937866)"/>
</clipPath>
</defs>
</svg>
